<?xml version="1.0" standalone="no"?>
<!DOCTYPE svg PUBLIC "-//W3C//DTD SVG 20010904//EN"
 "http://www.w3.org/TR/2001/REC-SVG-20010904/DTD/svg10.dtd">
<svg version="1.0" xmlns="http://www.w3.org/2000/svg"
 width="260.000000pt" height="260.000000pt" viewBox="0 0 260.000000 260.000000"
 preserveAspectRatio="xMidYMid meet">
<metadata>
Created by potrace 1.11, written by Peter Selinger 2001-2013
</metadata>
<g transform="translate(0.000000,260.000000) scale(0.100000,-0.100000)"
fill="#000000" stroke="none">
<path d="M1080 2433 c-276 -24 -501 -185 -639 -460 -115 -229 -147 -423 -93
-563 21 -54 121 -241 166 -310 28 -43 83 -129 122 -192 16 -26 40 -52 54 -57
44 -17 222 -69 290 -85 85 -20 360 -19 467 1 292 54 476 292 567 733 16 78 21
124 15 145 -4 16 -10 48 -14 70 -3 23 -8 52 -10 65 -3 14 -12 66 -20 115 -18
106 -34 146 -93 239 -51 81 -91 120 -183 181 -131 87 -277 125 -472 122 -67
-1 -138 -3 -157 -4z m195 -398 c85 -24 182 -99 244 -189 72 -104 80 -192 30
-333 -18 -48 -35 -92 -39 -98 -4 -5 -18 -41 -30 -80 -43 -132 -105 -197 -210
-223 -72 -18 -116 -8 -188 41 -73 50 -173 142 -210 194 -59 83 -81 236 -56
401 24 168 45 204 148 256 100 51 203 61 311 31z"/>
<path d="M1970 737 c-3 -3 -25 -8 -50 -11 -25 -3 -103 -17 -175 -31 -71 -13
-146 -27 -165 -30 -19 -3 -54 -10 -78 -16 -23 -5 -59 -12 -80 -15 -20 -3 -44
-7 -52 -10 -9 -2 -90 -18 -180 -35 -91 -16 -174 -32 -185 -34 -11 -2 -87 -15
-169 -30 -236 -40 -252 -53 -250 -210 2 -171 36 -212 168 -201 39 3 80 7 91
10 11 2 49 7 85 11 36 3 76 8 90 10 14 2 57 7 95 10 71 6 141 12 230 21 28 2
88 9 135 15 147 18 221 26 320 34 196 18 359 76 447 161 45 43 54 75 32 117
-15 29 -109 149 -129 164 -50 40 -165 84 -180 70z"/>
</g>
</svg>
