<svg xmlns="http://www.w3.org/2000/svg">
    <symbol id="hm-logo-hover" viewBox="0 0 576.5 148.5">
      <g id="XMLID_50_"><path id="XMLID_83_" class="st0" d="M64.4 74V42.9h-29V74H21.5V.5L35.4 0v31.6h28.9V.5h13.9V74H64.4z"/><path id="XMLID_80_" class="st0" d="M135.9.5l28.5 72.6-14 1.9-6.6-18.4h-27.9L109.4 74h-14L124 .5h11.9zm-6.3 19.3L120 45.4h19.4l-9.8-25.6z"/><path id="XMLID_78_" class="st0" d="M194.5.5v45.7c0 5.8 1.5 10.2 4.4 13.1s6.8 4.4 11.7 4.4c4.9 0 8.8-1.5 11.7-4.5 2.9-3 4.4-7.3 4.4-13V.5h14.1v46.8c0 5.3-1.3 10.1-3.8 14.3-2.5 4.2-6.1 7.5-10.7 9.9-4.6 2.4-9.9 3.6-16 3.6-6 0-11.2-1.2-15.8-3.6-4.5-2.4-8-5.7-10.5-10-2.4-4.2-3.7-9-3.7-14.3L180.2.4h14.3z"/><path id="XMLID_76_" class="st0" d="M264.9 74V.5h13.9l34 49V.5h14V74h-14l-34-49.1V74h-13.9z"/><path id="XMLID_74_" class="st0" d="M405.6 11.6h-25.2V74h-14.1V11.6H344V.6h59.4l2.2 11z"/><path id="XMLID_72_" class="st0" d="M422.7 74V.5h43.8l2.2 11h-32.1v19.8h24l2.3 11.1h-26.2V63h35.2l2.3 10.9h-51.5z"/><path id="XMLID_69_" class="st0" d="M520.1 74h-27.9V.5h27.9c7.4 0 13.7 1.5 18.7 4.6 5.1 3.1 8.9 7.3 11.3 12.7 2.5 5.4 3.7 11.8 3.7 19 0 11.6-2.9 20.6-8.8 27.2-5.7 6.5-14.1 9.8-24.9 10zm.6-61.6h-14.5v49.8h13.7c6.2 0 11-2 14.4-6.1 3.4-4.1 5.1-10.5 5.1-19.3 0-7.8-1.5-13.9-4.6-18.1-3.1-4.2-7.8-6.3-14.1-6.3z"/><path id="XMLID_67_" class="st0" d="M31.5 124.7l-17.6-22.6V147H0V73.5h8.9l24.8 33.9 22.6-33.9h8.5V147H50.7v-42.3L36.9 124l-5.4.7z"/><path id="XMLID_64_" class="st0" d="M122.4 73.5l28.5 72.6-14 1.9-6.6-18.4h-27.9L95.9 147h-14l28.6-73.4h11.9zm-6.3 19.3l-9.6 25.6h19.4l-9.8-25.6z"/><path id="XMLID_62_" class="st0" d="M167.9 147V73.5h13.9l34 49v-49h14V147h-14l-34-49.1V147h-13.9z"/><path id="XMLID_60_" class="st0" d="M251 142.1l3.1-11.3c2.7 1.4 5.7 2.6 9.1 3.6 3.4 1 6.5 1.6 9.3 1.6 4.3 0 7.6-.7 9.8-2.1 2.2-1.4 3.3-3.3 3.3-5.9 0-1.8-.9-3.4-2.6-4.9-1.8-1.5-4.5-3.2-8.2-5.2l-3.2-1.9c-4.8-2.9-8.7-5.4-11.5-7.5-2.8-2.1-5.3-4.6-7.3-7.4-2.1-2.8-3.1-6-3.1-9.6 0-3.7 1-7.1 3-10.1s4.9-5.3 8.7-7c3.8-1.7 8.3-2.5 13.6-2.5 6.2 0 13.1 1.8 20.7 5.5l-4.6 11.2c-3-1.4-5.6-2.6-8-3.3-2.4-.8-5-1.2-7.8-1.2-3.2 0-5.9.6-7.9 1.9-2.1 1.3-3.1 3.1-3.1 5.6 0 2.1.8 3.8 2.4 5.2 1.6 1.4 4.3 3.2 7.9 5.3l3.5 1.9 3.1 1.8c4.2 2.4 7.6 4.6 10.2 6.4 2.5 1.8 4.6 4.1 6.3 6.7 1.7 2.6 2.5 5.7 2.5 9.2 0 4-1.1 7.5-3.2 10.5s-5.3 5.4-9.4 7.1c-4.1 1.7-9.1 2.6-14.8 2.6-3 0-6.8-.7-11.3-2-4.6-1.2-8.1-2.7-10.5-4.2z"/><path id="XMLID_58_" class="st0" d="M318.8 147V73.5h13.9V147h-13.9z"/><path id="XMLID_55_" class="st0" d="M388.5 71.8c7.4 0 13.9 1.7 19.3 5 5.5 3.3 9.6 7.9 12.5 13.7 2.8 5.8 4.3 12.2 4.3 19.3 0 7.5-1.5 14.1-4.5 19.9-3 5.8-7.3 10.3-12.7 13.6-5.4 3.3-11.7 5-18.8 5.1-7.4 0-13.8-1.7-19.3-5-5.4-3.3-9.6-7.9-12.4-13.6-2.8-5.7-4.3-12.1-4.3-19.3 0-7.4 1.5-14 4.5-19.9 3-5.8 7.2-10.4 12.7-13.7 5.3-3.2 11.6-4.9 18.7-5.1zm-21.4 38.7c0 5.1.9 9.7 2.6 13.7 1.7 4 4.2 7.1 7.4 9.3 3.2 2.2 7 3.3 11.3 3.3 4 0 7.7-1 11-3s5.9-5 7.8-9.1c1.9-4.1 2.9-9 2.9-14.9 0-5-.9-9.5-2.6-13.5-1.7-4-4.2-7.1-7.5-9.3-3.2-2.2-7-3.3-11.2-3.3-3.9 0-7.5 1.1-10.7 3.3-3.3 2.2-5.9 5.3-7.9 9.4-2.1 4.1-3.1 8.7-3.1 14.1z"/><path id="XMLID_53_" class="st0" d="M444.3 147V73.5h13.9l34 49v-49h14V147h-14l-34-49.1V147h-13.9z"/><path id="XMLID_51_" class="st0" d="M527.4 142.1l3.1-11.3c2.7 1.4 5.7 2.6 9.1 3.6 3.4 1 6.5 1.6 9.3 1.6 4.3 0 7.6-.7 9.8-2.1 2.2-1.4 3.3-3.3 3.3-5.9 0-1.8-.9-3.4-2.6-4.9-1.8-1.5-4.5-3.2-8.2-5.2L548 116c-4.8-2.9-8.7-5.4-11.5-7.5-2.8-2.1-5.3-4.6-7.3-7.4-2.1-2.8-3.1-6-3.1-9.6 0-3.7 1-7.1 3-10.1s4.9-5.3 8.7-7c3.8-1.7 8.3-2.5 13.6-2.5 6.2 0 13.1 1.8 20.7 5.5l-4.6 11.2c-3-1.4-5.6-2.6-8-3.3-2.4-.8-5-1.2-7.8-1.2-3.2 0-5.9.6-7.9 1.9-2.1 1.3-3.1 3.1-3.1 5.6 0 2.1.8 3.8 2.4 5.2 1.6 1.4 4.3 3.2 7.9 5.3l3.5 1.9 3.1 1.8c4.2 2.4 7.6 4.6 10.2 6.4 2.5 1.8 4.6 4.1 6.3 6.7 1.7 2.6 2.5 5.7 2.5 9.2 0 4-1.1 7.5-3.2 10.5s-5.3 5.4-9.4 7.1c-4.1 1.7-9.1 2.6-14.8 2.6-3 0-6.8-.7-11.3-2-4.6-1.2-8.1-2.7-10.5-4.2z"/></g>
    </symbol>
    <symbol id="hm-logo" viewBox="-29 276.5 711 194.5">
      <g id="Layer_1"><g id="XMLID_26_"><path id="XMLID_46_" class="st0" d="M78 373.6v-31.1H49v31.1H35.1v-73.5l13.9-.5v31.6h28.9v-31.1h13.9v73.5H78z"/><path id="XMLID_45_" class="st0" d="M149.5 300.1l28.5 72.6-14 1.9-6.6-18.4h-27.9l-6.5 17.4h-14l28.6-73.5h11.9zm-6.3 19.3l-9.6 25.6H153l-9.8-25.6z"/><path id="XMLID_44_" class="st0" d="M208.1 300.1v45.7c0 5.8 1.5 10.2 4.4 13.1 2.9 2.9 6.8 4.4 11.7 4.4s8.8-1.5 11.7-4.5 4.4-7.3 4.4-13v-45.7h14.1v46.8c0 5.3-1.3 10.1-3.8 14.3-2.5 4.2-6.1 7.5-10.7 9.9-4.6 2.4-9.9 3.6-16 3.6-6 0-11.2-1.2-15.8-3.6-4.5-2.4-8-5.7-10.5-10-2.4-4.2-3.7-9-3.7-14.3l-.1-46.8h14.3v.1z"/><path id="XMLID_43_" class="st0" d="M278.5 373.6v-73.5h13.9l34 49v-49h14v73.5h-14l-34-49.1v49.1h-13.9z"/><path id="XMLID_42_" class="st0" d="M419.2 311.2H394v62.4h-14.1v-62.4h-22.3v-11H417l2.2 11z"/><path id="XMLID_39_" class="st0" d="M436.3 373.6v-73.5h43.8l2.2 11h-32.1v19.8h24l2.3 11.1h-26.2v20.6h35.2l2.3 10.9h-51.5v.1z"/><path id="XMLID_35_" class="st0" d="M533.7 373.6h-27.9v-73.5h27.9c7.4 0 13.7 1.5 18.7 4.6 5.1 3.1 8.9 7.3 11.3 12.7 2.5 5.4 3.7 11.8 3.7 19 0 11.6-2.9 20.6-8.8 27.2-5.7 6.5-14.1 9.8-24.9 10zm.6-61.6h-14.5v49.8h13.7c6.2 0 11-2 14.4-6.1s5.1-10.5 5.1-19.3c0-7.8-1.5-13.9-4.6-18.1-3.1-4.2-7.8-6.3-14.1-6.3z"/><path id="XMLID_34_" class="st0" d="M45.1 424.3l-17.6-22.6v44.9H13.6v-73.5h8.9L47.3 407l22.6-33.9h8.5v73.5H64.3v-42.3l-13.8 19.3-5.4.7z"/><path id="XMLID_33_" class="st0" d="M136 373.1l28.5 72.6-14 1.9-6.6-18.4H116l-6.5 17.4h-14l28.6-73.4H136v-.1zm-6.3 19.3l-9.6 25.6h19.4l-9.8-25.6z"/><path id="XMLID_32_" class="st0" d="M181.5 446.6v-73.5h13.9l34 49v-49h14v73.5h-14l-34-49.1v49.1h-13.9z"/><path id="XMLID_31_" class="st0" d="M264.6 441.7l3.1-11.3c2.7 1.4 5.7 2.6 9.1 3.6s6.5 1.6 9.3 1.6c4.3 0 7.6-.7 9.8-2.1 2.2-1.4 3.3-3.3 3.3-5.9 0-1.8-.9-3.4-2.6-4.9-1.8-1.5-4.5-3.2-8.2-5.2l-3.2-1.9c-4.8-2.9-8.7-5.4-11.5-7.5-2.8-2.1-5.3-4.6-7.3-7.4-2.1-2.8-3.1-6-3.1-9.6 0-3.7 1-7.1 3-10.1s4.9-5.3 8.7-7c3.8-1.7 8.3-2.5 13.6-2.5 6.2 0 13.1 1.8 20.7 5.5l-4.6 11.2c-3-1.4-5.6-2.6-8-3.3-2.4-.8-5-1.2-7.8-1.2-3.2 0-5.9.6-7.9 1.9-2.1 1.3-3.1 3.1-3.1 5.6 0 2.1.8 3.8 2.4 5.2s4.3 3.2 7.9 5.3l3.5 1.9 3.1 1.8c4.2 2.4 7.6 4.6 10.2 6.4 2.5 1.8 4.6 4.1 6.3 6.7 1.7 2.6 2.5 5.7 2.5 9.2 0 4-1.1 7.5-3.2 10.5s-5.3 5.4-9.4 7.1c-4.1 1.7-9.1 2.6-14.8 2.6-3 0-6.8-.7-11.3-2-4.6-1.2-8.1-2.7-10.5-4.2z"/><path id="XMLID_30_" class="st0" d="M332.4 446.6v-73.5h13.9v73.5h-13.9z"/><path id="XMLID_29_" class="st0" d="M402.1 371.4c7.4 0 13.9 1.7 19.3 5 5.5 3.3 9.6 7.9 12.5 13.7 2.8 5.8 4.3 12.2 4.3 19.3 0 7.5-1.5 14.1-4.5 19.9-3 5.8-7.3 10.3-12.7 13.6-5.4 3.3-11.7 5-18.8 5.1-7.4 0-13.8-1.7-19.3-5-5.4-3.3-9.6-7.9-12.4-13.6s-4.3-12.1-4.3-19.3c0-7.4 1.5-14 4.5-19.9 3-5.8 7.2-10.4 12.7-13.7 5.3-3.2 11.6-4.9 18.7-5.1zm-21.4 38.7c0 5.1.9 9.7 2.6 13.7s4.2 7.1 7.4 9.3c3.2 2.2 7 3.3 11.3 3.3 4 0 7.7-1 11-3s5.9-5 7.8-9.1 2.9-9 2.9-14.9c0-5-.9-9.5-2.6-13.5s-4.2-7.1-7.5-9.3c-3.2-2.2-7-3.3-11.2-3.3-3.9 0-7.5 1.1-10.7 3.3-3.3 2.2-5.9 5.3-7.9 9.4-2.1 4.1-3.1 8.7-3.1 14.1z"/><path id="XMLID_28_" class="st0" d="M457.9 446.6v-73.5h13.9l34 49v-49h14v73.5h-14l-34-49.1v49.1h-13.9z"/><path id="XMLID_27_" class="st0" d="M541 441.7l3.1-11.3c2.7 1.4 5.7 2.6 9.1 3.6 3.4 1 6.5 1.6 9.3 1.6 4.3 0 7.6-.7 9.8-2.1s3.3-3.3 3.3-5.9c0-1.8-.9-3.4-2.6-4.9-1.8-1.5-4.5-3.2-8.2-5.2l-3.2-1.9c-4.8-2.9-8.7-5.4-11.5-7.5-2.8-2.1-5.3-4.6-7.3-7.4-2.1-2.8-3.1-6-3.1-9.6 0-3.7 1-7.1 3-10.1s4.9-5.3 8.7-7c3.8-1.7 8.3-2.5 13.6-2.5 6.2 0 13.1 1.8 20.7 5.5l-4.6 11.2c-3-1.4-5.6-2.6-8-3.3-2.4-.8-5-1.2-7.8-1.2-3.2 0-5.9.6-7.9 1.9-2.1 1.3-3.1 3.1-3.1 5.6 0 2.1.8 3.8 2.4 5.2 1.6 1.4 4.3 3.2 7.9 5.3l3.5 1.9 3.1 1.8c4.2 2.4 7.6 4.6 10.2 6.4 2.5 1.8 4.6 4.1 6.3 6.7s2.5 5.7 2.5 9.2c0 4-1.1 7.5-3.2 10.5s-5.3 5.4-9.4 7.1c-4.1 1.7-9.1 2.6-14.8 2.6-3 0-6.8-.7-11.3-2-4.6-1.2-8.1-2.7-10.5-4.2z"/></g></g>
    </symbol>
    <symbol id="icon-logo-emblem" viewBox="0 0 78.7 94">
      <path id="XMLID_2_" class="st0" d="M65.9 18.5c.8 4.5 1.5 9 2.3 13.5.1.7.4 1.3.3 2-2 9.8-4.2 19.8-11.4 27.3-6.9 7.1-16.4 7-25.3 6.9-5.4-.1-10.8-2.4-16.2-3.8-.9-.2-1.9-.9-2.3-1.7-4-6.8-8.6-13.3-11.7-20.5-2.9-6.6-.9-13.6 1.9-20.1C8.2 10.9 15.8 2.3 28.4.6 40.3-.9 52-.2 61.1 9.7c0 0 3.8 5.1 4.8 8.8M34.7 54c7-.2 10.2-4 11.6-9 1.7-6.5 7-12.4 2.4-20-6-9.8-16.5-12.5-25.7-5.7-1 .7-1.8 2-2.1 3.2-1.5 6.4-2.2 12.7-.1 19.2C22 45.6 31.8 54 34.7 54z"/><path id="XMLID_1_" class="st0" d="M10.6 85.4c-.2-4.3.9-6.7 6.1-7.5 16.5-2.7 32.9-6.3 49.4-9.2 2-.3 4.5 1.2 6.5 2.4 1.3.8 2.2 2.5 3.2 3.7 4.6 5.2 3.6 7.2-2.5 10.7-7 4.1-14.6 3.5-22 4.6C40.7 91.6 30 92 19.4 93.6c-6.9 1.2-8.5-.4-8.8-8.2z"/>
    </symbol>
    <symbol id="icon-mute-hover" viewBox="0 0 24 24">
      <g class="st0"><g class="st1"><g class="st2"><path class="st3" d="M0 0h24v24H0z"/></g><circle class="st4" cx="12" cy="12" r="10"/><path class="st4" d="M20 21H4c-.5 0-1-.5-1-1V4c0-.5.5-1 1-1h16c.5 0 1 .5 1 1v16c0 .5-.5 1-1 1z"/><path class="st4" d="M18 22H6c-.6 0-1-.4-1-1V3c0-.6.4-1 1-1h12c.6 0 1 .4 1 1v18c0 .6-.4 1-1 1z"/><path class="st4" d="M2 18V6c0-.6.4-1 1-1h18c.6 0 1 .4 1 1v12c0 .6-.4 1-1 1H3c-.6 0-1-.4-1-1z"/></g></g><path d="M7 15c0 .5.4 1 1 1h3l3.4 2.8c.2.1.4.2.6.2.6 0 1-.4 1-1v-.6l3.3 3.3c.4.4 1 .4 1.4 0 .4-.4.4-1 0-1.4l-16-16c-.4-.4-1-.4-1.4 0s-.4 1 0 1.4l3.8 3.8c0 .2-.1.3-.1.5v6zM16 6c0-.6-.4-1-1-1-.2 0-.4.1-.6.2l-2.7 2.2 4.3 4.3V6z"/>
    </symbol>
    <symbol id="icon-mute" viewBox="0 0 24 24">
      <g class="st0"><g class="st1"><g class="st2"><path class="st3" d="M0 0h24v24H0z"/></g><circle class="st4" cx="12" cy="12" r="10"/><path class="st4" d="M20 21H4c-.5 0-1-.5-1-1V4c0-.5.5-1 1-1h16c.5 0 1 .5 1 1v16c0 .5-.5 1-1 1z"/><path class="st4" d="M18 22H6c-.6 0-1-.4-1-1V3c0-.6.4-1 1-1h12c.6 0 1 .4 1 1v18c0 .6-.4 1-1 1z"/><path class="st4" d="M2 18V6c0-.6.4-1 1-1h18c.6 0 1 .4 1 1v12c0 .6-.4 1-1 1H3c-.6 0-1-.4-1-1z"/></g></g><path d="M7 15c0 .5.4 1 1 1h3l3.4 2.8c.2.1.4.2.6.2.6 0 1-.4 1-1v-.6l3.3 3.3c.4.4 1 .4 1.4 0 .4-.4.4-1 0-1.4l-16-16c-.4-.4-1-.4-1.4 0s-.4 1 0 1.4l3.8 3.8c0 .2-.1.3-.1.5v6zM16 6c0-.6-.4-1-1-1-.2 0-.4.1-.6.2l-2.7 2.2 4.3 4.3V6z"/>
    </symbol>
    <symbol id="icon-next" viewBox="-205 297 200 200">
      <path class="st0" d="M-105 297c-55.2 0-100 44.8-100 100s44.8 100 100 100S-5 452.2-5 397s-44.8-100-100-100zm37.5 137.5h-25V397l-50 37.5v-75l50 37.5v-37.5h25v75z"/>
    </symbol>
    <symbol id="icon-prev" viewBox="-205 297 200 200">
      <path class="st0" d="M-104 297c-55.2 0-100 44.8-100 100s44.8 100 100 100S-4 452.2-4 397c-.1-55.2-44.8-99.9-100-100zm-17.8 150.8H-151v-96.6h29.1v96.6zm62.1-2.1c0 1.5-1.3 2.8-2.8 2.8-.7 0-1.4-.3-1.9-.8l-46-46c-1.1-1.1-1.1-2.8 0-3.9l46-46c1.1-1.1 2.9-1.1 3.9 0 .5.5.8 1.2.8 1.9v92z"/>
    </symbol>
    <symbol id="icon-spotify" viewBox="0 0 566.93 170.04">
      <path d="M87.996 1.277c-46.249 0-83.743 37.493-83.743 83.742 0 46.254 37.494 83.745 83.743 83.745 46.251 0 83.743-37.491 83.743-83.745 0-46.246-37.49-83.738-83.744-83.738zm38.404 120.78a5.217 5.217 0 0 1-7.177 1.737c-19.665-12.019-44.417-14.734-73.567-8.075a5.217 5.217 0 0 1-6.249-3.925 5.212 5.212 0 0 1 3.926-6.249c31.9-7.293 59.263-4.154 81.336 9.334 2.46 1.51 3.24 4.72 1.73 7.18zm10.25-22.799c-1.894 3.073-5.912 4.037-8.981 2.15-22.505-13.834-56.822-17.841-83.447-9.759-3.453 1.043-7.1-.903-8.148-4.35a6.538 6.538 0 0 1 4.354-8.143c30.413-9.228 68.221-4.758 94.071 11.127 3.07 1.89 4.04 5.91 2.15 8.976zm.88-23.744c-26.994-16.031-71.52-17.505-97.289-9.684-4.138 1.255-8.514-1.081-9.768-5.219a7.835 7.835 0 0 1 5.221-9.771c29.581-8.98 78.756-7.245 109.83 11.202a7.833 7.833 0 0 1 2.737 10.733c-2.2 3.722-7.02 4.949-10.73 2.739zM232.09 78.586c-14.459-3.448-17.033-5.868-17.033-10.953 0-4.804 4.523-8.037 11.249-8.037 6.52 0 12.985 2.455 19.763 7.509a.945.945 0 0 0 .715.174.934.934 0 0 0 .625-.386l7.06-9.952a.949.949 0 0 0-.18-1.288c-8.067-6.473-17.151-9.62-27.769-9.62-15.612 0-26.517 9.369-26.517 22.774 0 14.375 9.407 19.465 25.663 23.394 13.836 3.187 16.171 5.857 16.171 10.63 0 5.289-4.722 8.577-12.321 8.577-8.44 0-15.324-2.843-23.025-9.512a.992.992 0 0 0-.695-.226.94.94 0 0 0-.65.334l-7.916 9.421a.94.94 0 0 0 .094 1.313c8.96 7.999 19.98 12.224 31.872 12.224 16.823 0 27.694-9.192 27.694-23.419.03-12.01-7.16-18.66-24.77-22.944zM294.95 64.326c-7.292 0-13.273 2.872-18.205 8.757v-6.624a.949.949 0 0 0-.946-.949h-12.947a.948.948 0 0 0-.946.949v73.602c0 .523.423.949.946.949h12.947a.949.949 0 0 0 .946-.949v-23.233c4.933 5.536 10.915 8.241 18.205 8.241 13.549 0 27.265-10.43 27.265-30.368.02-19.943-13.7-30.376-27.25-30.376zm12.21 30.375c0 10.153-6.254 17.238-15.209 17.238-8.853 0-15.531-7.407-15.531-17.238 0-9.83 6.678-17.238 15.531-17.238 8.81-.001 15.21 7.247 15.21 17.237zM357.37 64.326c-17.449 0-31.119 13.436-31.119 30.592 0 16.969 13.576 30.264 30.905 30.264 17.511 0 31.223-13.391 31.223-30.481 0-17.031-13.62-30.373-31.01-30.373zm0 47.714c-9.281 0-16.278-7.457-16.278-17.344 0-9.929 6.755-17.134 16.064-17.134 9.341 0 16.385 7.457 16.385 17.351 0 9.927-6.8 17.127-16.17 17.127zM425.64 65.51h-14.247V50.944a.947.947 0 0 0-.945-.948h-12.945a.95.95 0 0 0-.949.948V65.51h-6.225a.947.947 0 0 0-.943.949v11.127c0 .522.422.949.943.949h6.225v28.791c0 11.635 5.791 17.534 17.212 17.534 4.644 0 8.497-.959 12.128-3.018a.944.944 0 0 0 .478-.821v-10.596a.948.948 0 0 0-1.372-.85c-2.494 1.255-4.905 1.834-7.6 1.834-4.154 0-6.007-1.886-6.007-6.113V78.54h14.247a.946.946 0 0 0 .944-.949V66.465a.918.918 0 0 0-.93-.949zM475.28 65.567v-1.789c0-5.263 2.018-7.61 6.544-7.61 2.699 0 4.867.536 7.295 1.346a.946.946 0 0 0 1.245-.902v-10.91a.947.947 0 0 0-.67-.909c-2.565-.763-5.847-1.546-10.761-1.546-11.958 0-18.279 6.734-18.279 19.467v2.74h-6.22a.952.952 0 0 0-.95.948v11.184c0 .522.428.949.95.949h6.22v44.409c0 .523.422.949.944.949h12.947a.95.95 0 0 0 .949-.949V78.538h12.088l18.517 44.398c-2.102 4.665-4.169 5.593-6.991 5.593-2.281 0-4.683-.681-7.139-2.025a.972.972 0 0 0-.754-.071.957.957 0 0 0-.56.511l-4.388 9.627a.942.942 0 0 0 .408 1.225c4.581 2.481 8.716 3.54 13.827 3.54 9.56 0 14.844-4.453 19.502-16.433l22.461-58.04a.947.947 0 0 0-.879-1.293h-13.478a.951.951 0 0 0-.897.636l-13.807 39.438-15.123-39.464a.945.945 0 0 0-.884-.61h-22.12zM446.5 65.51h-12.947a.95.95 0 0 0-.949.949v56.485a.95.95 0 0 0 .949.949H446.5a.951.951 0 0 0 .949-.949V66.463a.947.947 0 0 0-.95-.949zM440.1 39.791c-5.129 0-9.291 4.152-9.291 9.281 0 5.132 4.163 9.289 9.291 9.289 5.127 0 9.285-4.157 9.285-9.289 0-5.128-4.16-9.281-9.28-9.281zM553.52 83.671c-5.124 0-9.111-4.115-9.111-9.112s4.039-9.159 9.159-9.159a9.074 9.074 0 0 1 9.111 9.107c0 4.997-4.04 9.164-9.16 9.164zm.05-17.365c-4.667 0-8.198 3.71-8.198 8.253 0 4.541 3.506 8.201 8.151 8.201 4.666 0 8.201-3.707 8.201-8.253 0-4.541-3.51-8.201-8.15-8.201zm2.02 9.138l2.577 3.608h-2.173l-2.32-3.31h-1.995v3.31h-1.819v-9.564h4.265c2.222 0 3.683 1.137 3.683 3.051.01 1.568-.9 2.526-2.21 2.905zm-1.54-4.315h-2.372v3.025h2.372c1.184 0 1.891-.579 1.891-1.514 0-.984-.71-1.511-1.89-1.511z"/>
    </symbol></svg>