<svg xmlns="http://www.w3.org/2000/svg">
  <defs>
      <path id="SVGID_1_" d="M-165.7 389.1h50.4v50.4h-50.4z"/>
  </defs>
    <symbol id="hm-logo-hover" viewBox="0 0 576.5 148.5">
      <g id="XMLID_50_"><path id="XMLID_83_" class="st0" d="M64.4 74V42.9h-29V74H21.5V.5L35.4 0v31.6h28.9V.5h13.9V74H64.4z"/><path id="XMLID_80_" class="st0" d="M135.9.5l28.5 72.6-14 1.9-6.6-18.4h-27.9L109.4 74h-14L124 .5h11.9zm-6.3 19.3L120 45.4h19.4l-9.8-25.6z"/><path id="XMLID_78_" class="st0" d="M194.5.5v45.7c0 5.8 1.5 10.2 4.4 13.1s6.8 4.4 11.7 4.4c4.9 0 8.8-1.5 11.7-4.5 2.9-3 4.4-7.3 4.4-13V.5h14.1v46.8c0 5.3-1.3 10.1-3.8 14.3-2.5 4.2-6.1 7.5-10.7 9.9-4.6 2.4-9.9 3.6-16 3.6-6 0-11.2-1.2-15.8-3.6-4.5-2.4-8-5.7-10.5-10-2.4-4.2-3.7-9-3.7-14.3L180.2.4h14.3z"/><path id="XMLID_76_" class="st0" d="M264.9 74V.5h13.9l34 49V.5h14V74h-14l-34-49.1V74h-13.9z"/><path id="XMLID_74_" class="st0" d="M405.6 11.6h-25.2V74h-14.1V11.6H344V.6h59.4l2.2 11z"/><path id="XMLID_72_" class="st0" d="M422.7 74V.5h43.8l2.2 11h-32.1v19.8h24l2.3 11.1h-26.2V63h35.2l2.3 10.9h-51.5z"/><path id="XMLID_69_" class="st0" d="M520.1 74h-27.9V.5h27.9c7.4 0 13.7 1.5 18.7 4.6 5.1 3.1 8.9 7.3 11.3 12.7 2.5 5.4 3.7 11.8 3.7 19 0 11.6-2.9 20.6-8.8 27.2-5.7 6.5-14.1 9.8-24.9 10zm.6-61.6h-14.5v49.8h13.7c6.2 0 11-2 14.4-6.1 3.4-4.1 5.1-10.5 5.1-19.3 0-7.8-1.5-13.9-4.6-18.1-3.1-4.2-7.8-6.3-14.1-6.3z"/><path id="XMLID_67_" class="st0" d="M31.5 124.7l-17.6-22.6V147H0V73.5h8.9l24.8 33.9 22.6-33.9h8.5V147H50.7v-42.3L36.9 124l-5.4.7z"/><path id="XMLID_64_" class="st0" d="M122.4 73.5l28.5 72.6-14 1.9-6.6-18.4h-27.9L95.9 147h-14l28.6-73.4h11.9zm-6.3 19.3l-9.6 25.6h19.4l-9.8-25.6z"/><path id="XMLID_62_" class="st0" d="M167.9 147V73.5h13.9l34 49v-49h14V147h-14l-34-49.1V147h-13.9z"/><path id="XMLID_60_" class="st0" d="M251 142.1l3.1-11.3c2.7 1.4 5.7 2.6 9.1 3.6 3.4 1 6.5 1.6 9.3 1.6 4.3 0 7.6-.7 9.8-2.1 2.2-1.4 3.3-3.3 3.3-5.9 0-1.8-.9-3.4-2.6-4.9-1.8-1.5-4.5-3.2-8.2-5.2l-3.2-1.9c-4.8-2.9-8.7-5.4-11.5-7.5-2.8-2.1-5.3-4.6-7.3-7.4-2.1-2.8-3.1-6-3.1-9.6 0-3.7 1-7.1 3-10.1s4.9-5.3 8.7-7c3.8-1.7 8.3-2.5 13.6-2.5 6.2 0 13.1 1.8 20.7 5.5l-4.6 11.2c-3-1.4-5.6-2.6-8-3.3-2.4-.8-5-1.2-7.8-1.2-3.2 0-5.9.6-7.9 1.9-2.1 1.3-3.1 3.1-3.1 5.6 0 2.1.8 3.8 2.4 5.2 1.6 1.4 4.3 3.2 7.9 5.3l3.5 1.9 3.1 1.8c4.2 2.4 7.6 4.6 10.2 6.4 2.5 1.8 4.6 4.1 6.3 6.7 1.7 2.6 2.5 5.7 2.5 9.2 0 4-1.1 7.5-3.2 10.5s-5.3 5.4-9.4 7.1c-4.1 1.7-9.1 2.6-14.8 2.6-3 0-6.8-.7-11.3-2-4.6-1.2-8.1-2.7-10.5-4.2z"/><path id="XMLID_58_" class="st0" d="M318.8 147V73.5h13.9V147h-13.9z"/><path id="XMLID_55_" class="st0" d="M388.5 71.8c7.4 0 13.9 1.7 19.3 5 5.5 3.3 9.6 7.9 12.5 13.7 2.8 5.8 4.3 12.2 4.3 19.3 0 7.5-1.5 14.1-4.5 19.9-3 5.8-7.3 10.3-12.7 13.6-5.4 3.3-11.7 5-18.8 5.1-7.4 0-13.8-1.7-19.3-5-5.4-3.3-9.6-7.9-12.4-13.6-2.8-5.7-4.3-12.1-4.3-19.3 0-7.4 1.5-14 4.5-19.9 3-5.8 7.2-10.4 12.7-13.7 5.3-3.2 11.6-4.9 18.7-5.1zm-21.4 38.7c0 5.1.9 9.7 2.6 13.7 1.7 4 4.2 7.1 7.4 9.3 3.2 2.2 7 3.3 11.3 3.3 4 0 7.7-1 11-3s5.9-5 7.8-9.1c1.9-4.1 2.9-9 2.9-14.9 0-5-.9-9.5-2.6-13.5-1.7-4-4.2-7.1-7.5-9.3-3.2-2.2-7-3.3-11.2-3.3-3.9 0-7.5 1.1-10.7 3.3-3.3 2.2-5.9 5.3-7.9 9.4-2.1 4.1-3.1 8.7-3.1 14.1z"/><path id="XMLID_53_" class="st0" d="M444.3 147V73.5h13.9l34 49v-49h14V147h-14l-34-49.1V147h-13.9z"/><path id="XMLID_51_" class="st0" d="M527.4 142.1l3.1-11.3c2.7 1.4 5.7 2.6 9.1 3.6 3.4 1 6.5 1.6 9.3 1.6 4.3 0 7.6-.7 9.8-2.1 2.2-1.4 3.3-3.3 3.3-5.9 0-1.8-.9-3.4-2.6-4.9-1.8-1.5-4.5-3.2-8.2-5.2L548 116c-4.8-2.9-8.7-5.4-11.5-7.5-2.8-2.1-5.3-4.6-7.3-7.4-2.1-2.8-3.1-6-3.1-9.6 0-3.7 1-7.1 3-10.1s4.9-5.3 8.7-7c3.8-1.7 8.3-2.5 13.6-2.5 6.2 0 13.1 1.8 20.7 5.5l-4.6 11.2c-3-1.4-5.6-2.6-8-3.3-2.4-.8-5-1.2-7.8-1.2-3.2 0-5.9.6-7.9 1.9-2.1 1.3-3.1 3.1-3.1 5.6 0 2.1.8 3.8 2.4 5.2 1.6 1.4 4.3 3.2 7.9 5.3l3.5 1.9 3.1 1.8c4.2 2.4 7.6 4.6 10.2 6.4 2.5 1.8 4.6 4.1 6.3 6.7 1.7 2.6 2.5 5.7 2.5 9.2 0 4-1.1 7.5-3.2 10.5s-5.3 5.4-9.4 7.1c-4.1 1.7-9.1 2.6-14.8 2.6-3 0-6.8-.7-11.3-2-4.6-1.2-8.1-2.7-10.5-4.2z"/></g>
    </symbol>
    <symbol id="hm-logo" viewBox="58 323.4 711 194.5">
      <g id="Layer_1_1_"><g id="XMLID_26_"><path id="XMLID_46_" class="st0" d="M196.8 416.4v-31.1h-29v31.1h-13.9v-73.5l13.9-.5V374h28.9v-31.1h13.9v73.5h-13.8z"/><path id="XMLID_45_" class="st0" d="M268.3 342.9l28.5 72.6-14 1.9-6.6-18.4h-27.9l-6.5 17.4h-14l28.6-73.5h11.9zm-6.3 19.3l-9.6 25.6h19.4l-9.8-25.6z"/><path id="XMLID_44_" class="st0" d="M326.9 342.9v45.7c0 5.8 1.5 10.2 4.4 13.1s6.8 4.4 11.7 4.4 8.8-1.5 11.7-4.5 4.4-7.3 4.4-13v-45.7h14.1v46.8c0 5.3-1.3 10.1-3.8 14.3-2.5 4.2-6.1 7.5-10.7 9.9s-9.9 3.6-16 3.6c-6 0-11.2-1.2-15.8-3.6-4.5-2.4-8-5.7-10.5-10-2.4-4.2-3.7-9-3.7-14.3l-.1-46.8h14.3v.1z"/><path id="XMLID_43_" class="st0" d="M397.3 416.4v-73.5h13.9l34 49v-49h14v73.5h-14l-34-49.1v49.1h-13.9z"/><path id="XMLID_42_" class="st0" d="M538 354h-25.2v62.4h-14.1V354h-22.3v-11h59.4l2.2 11z"/><path id="XMLID_39_" class="st0" d="M555.1 416.4v-73.5h43.8l2.2 11H569v19.8h24l2.3 11.1h-26.2v20.6h35.2l2.3 10.9h-51.5v.1z"/><path id="XMLID_35_" class="st0" d="M652.5 416.4h-27.9v-73.5h27.9c7.4 0 13.7 1.5 18.7 4.6 5.1 3.1 8.9 7.3 11.3 12.7 2.5 5.4 3.7 11.8 3.7 19 0 11.6-2.9 20.6-8.8 27.2-5.7 6.5-14.1 9.8-24.9 10zm.6-61.6h-14.5v49.8h13.7c6.2 0 11-2 14.4-6.1s5.1-10.5 5.1-19.3c0-7.8-1.5-13.9-4.6-18.1-3.1-4.2-7.8-6.3-14.1-6.3z"/><path id="XMLID_34_" class="st0" d="M163.9 475.1l-17.6-22.6v44.9h-13.9v-73.5h8.9l24.8 33.9 22.6-33.9h8.5v73.5h-14.1v-42.3l-13.8 19.3-5.4.7z"/><path id="XMLID_33_" class="st0" d="M254.8 423.9l28.5 72.6-14 1.9-6.6-18.4h-27.9l-6.5 17.4h-14l28.6-73.4h11.9v-.1zm-6.3 19.3l-9.6 25.6h19.4l-9.8-25.6z"/><path id="XMLID_32_" class="st0" d="M300.3 497.4v-73.5h13.9l34 49v-49h14v73.5h-14l-34-49.1v49.1h-13.9z"/><path id="XMLID_31_" class="st0" d="M383.4 492.5l3.1-11.3c2.7 1.4 5.7 2.6 9.1 3.6s6.5 1.6 9.3 1.6c4.3 0 7.6-.7 9.8-2.1 2.2-1.4 3.3-3.3 3.3-5.9 0-1.8-.9-3.4-2.6-4.9-1.8-1.5-4.5-3.2-8.2-5.2l-3.2-1.9c-4.8-2.9-8.7-5.4-11.5-7.5s-5.3-4.6-7.3-7.4c-2.1-2.8-3.1-6-3.1-9.6 0-3.7 1-7.1 3-10.1s4.9-5.3 8.7-7c3.8-1.7 8.3-2.5 13.6-2.5 6.2 0 13.1 1.8 20.7 5.5l-4.6 11.2c-3-1.4-5.6-2.6-8-3.3-2.4-.8-5-1.2-7.8-1.2-3.2 0-5.9.6-7.9 1.9-2.1 1.3-3.1 3.1-3.1 5.6 0 2.1.8 3.8 2.4 5.2s4.3 3.2 7.9 5.3l3.5 1.9 3.1 1.8c4.2 2.4 7.6 4.6 10.2 6.4 2.5 1.8 4.6 4.1 6.3 6.7 1.7 2.6 2.5 5.7 2.5 9.2 0 4-1.1 7.5-3.2 10.5s-5.3 5.4-9.4 7.1-9.1 2.6-14.8 2.6c-3 0-6.8-.7-11.3-2-4.6-1.2-8.1-2.7-10.5-4.2z"/><path id="XMLID_30_" class="st0" d="M451.2 497.4v-73.5h13.9v73.5h-13.9z"/><path id="XMLID_29_" class="st0" d="M520.9 422.2c7.4 0 13.9 1.7 19.3 5 5.5 3.3 9.6 7.9 12.5 13.7 2.8 5.8 4.3 12.2 4.3 19.3 0 7.5-1.5 14.1-4.5 19.9s-7.3 10.3-12.7 13.6c-5.4 3.3-11.7 5-18.8 5.1-7.4 0-13.8-1.7-19.3-5-5.4-3.3-9.6-7.9-12.4-13.6s-4.3-12.1-4.3-19.3c0-7.4 1.5-14 4.5-19.9 3-5.8 7.2-10.4 12.7-13.7 5.3-3.2 11.6-4.9 18.7-5.1zm-21.4 38.7c0 5.1.9 9.7 2.6 13.7s4.2 7.1 7.4 9.3c3.2 2.2 7 3.3 11.3 3.3 4 0 7.7-1 11-3s5.9-5 7.8-9.1c1.9-4.1 2.9-9 2.9-14.9 0-5-.9-9.5-2.6-13.5s-4.2-7.1-7.5-9.3c-3.2-2.2-7-3.3-11.2-3.3-3.9 0-7.5 1.1-10.7 3.3-3.3 2.2-5.9 5.3-7.9 9.4-2.1 4.1-3.1 8.7-3.1 14.1z"/><path id="XMLID_28_" class="st0" d="M576.7 497.4v-73.5h13.9l34 49v-49h14v73.5h-14l-34-49.1v49.1h-13.9z"/><path id="XMLID_27_" class="st0" d="M659.8 492.5l3.1-11.3c2.7 1.4 5.7 2.6 9.1 3.6 3.4 1 6.5 1.6 9.3 1.6 4.3 0 7.6-.7 9.8-2.1s3.3-3.3 3.3-5.9c0-1.8-.9-3.4-2.6-4.9-1.8-1.5-4.5-3.2-8.2-5.2l-3.2-1.9c-4.8-2.9-8.7-5.4-11.5-7.5s-5.3-4.6-7.3-7.4c-2.1-2.8-3.1-6-3.1-9.6 0-3.7 1-7.1 3-10.1s4.9-5.3 8.7-7 8.3-2.5 13.6-2.5c6.2 0 13.1 1.8 20.7 5.5l-4.6 11.2c-3-1.4-5.6-2.6-8-3.3-2.4-.8-5-1.2-7.8-1.2-3.2 0-5.9.6-7.9 1.9-2.1 1.3-3.1 3.1-3.1 5.6 0 2.1.8 3.8 2.4 5.2 1.6 1.4 4.3 3.2 7.9 5.3l3.5 1.9 3.1 1.8c4.2 2.4 7.6 4.6 10.2 6.4 2.5 1.8 4.6 4.1 6.3 6.7s2.5 5.7 2.5 9.2c0 4-1.1 7.5-3.2 10.5s-5.3 5.4-9.4 7.1c-4.1 1.7-9.1 2.6-14.8 2.6-3 0-6.8-.7-11.3-2-4.6-1.2-8.1-2.7-10.5-4.2z"/></g></g>
    </symbol>
    <symbol id="icon-applemusic" viewBox="-162.7 360 245.3 71.3">
      <path class="st0" d="M-117.9 395c-.1-4.4 1.8-7.8 5.7-10.3-2.2-3.2-5.4-5-9.7-5.4-1.5-.1-3.5.2-5.8 1.1-2.5.9-4 1.4-4.3 1.4-.7 0-2-.4-3.9-1.2-1.9-.8-3.5-1.2-4.9-1.2-2.3 0-4.3.7-6.3 1.9-1.9 1.2-3.5 2.9-4.6 5-1.5 2.6-2.2 5.7-2.2 9.3 0 3.2.5 6.5 1.6 9.7 1 3.1 2.3 5.8 3.9 8.2 1.4 2.1 2.6 3.7 3.7 4.7 1.5 1.5 3.1 2.2 4.6 2.2 1 0 2.4-.4 4-1.1 1.5-.7 3.1-1 4.6-1 1.4 0 2.9.3 4.5 1 1.7.7 3.1 1.1 4.2 1.1 1.6-.1 3.1-.8 4.5-2.1.5-.4 1-1 1.6-1.8.7-.9 1.3-1.8 1.9-2.7l1.5-2.4c.5-.9.9-1.8 1.3-2.8.2-.4.3-.8.5-1.2.1-.4.3-.8.4-1.3-1.3-.6-2.5-1.4-3.5-2.4-2.1-2.5-3.3-5.3-3.3-8.7zm38.3 9.7h-.3l-10.7-24.5H-99v39.5h7.3v-25.6h.3l9 20.3h5.1l8.9-20.3h.3v25.6h7.4v-39.5h-8.4l-10.5 24.5zm-45-29.7c1.9-2.3 2.8-4.9 2.8-7.6v-.5c0-.2 0-.4-.1-.5-1.3.1-2.7.5-4.1 1.2-1.5.8-2.7 1.7-3.6 2.9-1.9 2.3-2.9 4.7-2.9 7.3v.5c0 .2 0 .3.1.5 2.9.2 5.5-1 7.8-3.8zm149.9 5.1h8.3v39.5h-8.3v-39.5zm33.1 6.3c4.9 0 7.5 3.8 7.5 7.8h7.9v-.8c0-7.6-5.8-14-15.5-14-10.3 0-16.4 6.8-16.4 18.3v4.5c0 11.6 6.1 18.3 16.4 18.3 9.9 0 15.5-6.5 15.5-13.6v-.9h-7.9c0 4.1-2.5 7.5-7.4 7.5-5 0-8.2-3.6-8.2-11.2v-4.5c0-7.6 3.2-11.4 8.1-11.4zM-29 405.1c0 5.3-3.1 8.2-7.7 8.2s-7.7-2.9-7.7-8.2v-25h-8.2v26.1c0 8.4 6 14.2 15.9 14.2s15.9-5.7 15.9-14.2v-26.1H-29v25zm35.5-8.4l-5.9-1.3c-3.5-.7-5.3-2.3-5.3-4.6 0-3 2.5-5 6.5-5 4.5 0 6.7 2.6 6.9 5.4h7.7c-.1-7-5.9-11.9-14.6-11.9-8.2 0-14.7 4.3-14.7 12.1 0 6.7 4.6 9.8 10 11l5.8 1.4c3.9.9 5.9 2.2 5.9 4.9 0 3.1-2.4 5.2-7 5.2-4.9 0-7.5-2.6-7.7-5.5h-7.9c.1 5.6 3.8 12.1 15.3 12.1 9.6 0 15.6-4.8 15.6-12.5-.1-7.3-4.9-10.1-10.6-11.3z"/>
    </symbol>
    <symbol id="icon-bandcamp" viewBox="-162.7 360 245.3 71.3">
      <path class="st0" d="M-108.3 379.8h4.5v10.8h.1c1.2-2 3.8-3.3 6.1-3.3 6.4 0 9.6 5.1 9.6 11.3 0 5.7-2.8 11-8.8 11-2.8 0-5.7-.7-7.1-3.5h-.1v2.9h-4.3v-29.2zm10.1 11.2c-3.8 0-5.7 3-5.7 7.5 0 4.3 2.1 7.4 5.7 7.4 4.1 0 5.7-3.8 5.7-7.4 0-3.9-2-7.5-5.7-7.5M-53.1 387.3c-2.7 0-5 1.4-6.4 3.8l-.1-.1v-3.1h-4.3v18h-3c-.8 0-1.1-.5-1.1-1.6v-10.9c0-4.5-4.2-6.1-8.2-6.1-4.5 0-9 1.6-9.3 7h4.5c.2-2.3 2-3.4 4.5-3.4 1.8 0 4.2.5 4.2 2.9 0 2.7-2.9 2.4-6.1 3-3.8.4-7.9 1.3-7.9 6.6 0 4.1 3.3 6.2 7 6.2 2.4 0 5.3-.8 7.1-2.6.4 1.9 1.7 2.6 3.5 2.6.8 0 2.2-.3 9.2-.5v-12.5c0-3.1 1.9-5.6 4.9-5.6 2.6 0 3.9 1.4 4 4.7V409h4.5v-14.5c.2-4.7-2.6-7.2-7-7.2m-19.3 14.6c0 2.9-3.1 4-5.1 4-1.6 0-4.2-.6-4.2-2.7 0-2.5 1.7-3.2 3.7-3.5 2-.4 4.2-.3 5.5-1.3v3.5zM-22.7 409H-27v-2.9c-1.2 2.4-3.8 3.4-6.3 3.4-6.4 0-9.6-4.9-9.6-11.3 0-7.6 4.4-11 8.9-11 2.6 0 5.4 1 6.8 3.3h.1v-10.8h4.5l-.1 29.3zm-10-3.1c4 0 5.7-3.8 5.7-7.5 0-4.7-2.2-7.4-5.7-7.4-4.2 0-5.7 3.9-5.7 7.7 0 3.6 1.7 7.2 5.7 7.2M-4.7 395c-.4-2.6-2.2-4-4.7-4-2.3 0-5.6 1.3-5.6 7.7 0 3.5 1.5 7.2 5.4 7.2 2.6 0 4.4-1.8 4.9-4.8h4.5c-.8 5.5-4.1 8.5-9.4 8.5-6.4 0-9.9-4.7-9.9-10.9 0-6.4 3.4-11.4 10.1-11.4 4.7 0 8.8 2.5 9.2 7.6l-4.5.1zM46.7 387.3c-3 0-4.9 1.4-6.4 3.5-.9-2.4-3.2-3.5-5.7-3.5-3.2 0-4.9 1.4-6.3 3.5h-.1v-2.9h-4.3v18h-3c-.8 0-1.1-.5-1.1-1.6v-10.9c0-4.5-4.2-6.1-8.2-6.1-4.5 0-9 1.6-9.3 7h4.5c.2-2.3 2-3.4 4.5-3.4 1.8 0 4.2.5 4.2 2.9 0 2.7-2.9 2.4-6.1 3-3.8.4-7.9 1.3-7.9 6.6 0 4.1 3.3 6.2 7 6.2 2.4 0 5.3-.8 7.1-2.6.4 1.9 1.7 2.6 3.5 2.6.8 0 2.2-.3 9.2-.5h.1v-12.6c0-3.5 2.1-5.5 4.5-5.5 2.7 0 3.6 1.6 3.6 4.5V409H41v-12.4c0-3.6 1.3-5.6 4.3-5.6 3.5 0 3.7 2.3 3.7 5.7V409h4.5v-14.6c0-5.1-2.5-7.1-6.8-7.1m-31.4 14.6c0 2.9-3.1 4-5.1 4-1.6 0-4.2-.6-4.2-2.7 0-2.5 1.7-3.2 3.7-3.5 2-.4 4.2-.3 5.5-1.3l.1 3.5zM57.6 387.9h4.3v2.9h.1c1.3-2.4 3.7-3.4 6.3-3.4 6.4 0 9.6 5.1 9.6 11.3 0 5.7-2.8 11-8.8 11-2.6 0-5.4-1-6.8-3.3h-.1V417h-4.5l-.1-29.1zm10.1 3.1c-3.8 0-5.7 3-5.7 7.5 0 4.3 2.1 7.4 5.7 7.4 4.1 0 5.7-3.8 5.7-7.4-.1-3.9-2-7.5-5.7-7.5"/><path class="st0" d="M-124 409h-33.8l15.8-29.2h33.8z"/>
    </symbol>
    <symbol id="icon-facebook" viewBox="-162.7 360 245.3 71.3">
      <path class="st0" d="M-80.1 387.9c-5 .5-8.4 3.5-9.4 8.4-.5 2.6-.5 5.2.1 7.8.9 3.9 3.2 6.4 7 7.5 2.5.7 5 .8 7.6.4 1.1-.2 2.6-.7 3.7-1.1l.4-.1-.2-.7c-.3-1.2-.7-2.3-1-3.5l-.3-1.2s-8.7 4.2-10.1-3.8c-.1-1.3-.1-2.7.1-4 .3-2.4 1.8-3.7 4.2-4 .8-.1 1.6 0 2.4.1 1.1.2 2.1.5 3.3.8.4-1.3.8-2.5 1.2-3.7.1-.2.1-.4.2-.5l.2-.8c0-.1-.2-.2-.3-.3-.2-.2-.5-.3-1.1-.5-.2-.1-.4-.1-.6-.2-.2-.1-.3-.1-.3-.1-2.4-.7-4.7-.8-7.1-.5zM-92.1 411.6v-23.5H-99v3c-.1-.1-.2-.2-.2-.3l-.2-.2c-1.7-1.7-2.3-2.1-3.6-2.5-5-1.5-10 1.2-11.5 6.2-1 3.1-1 6.3-.4 9.5 1.2 6.8 6.3 9.1 11.7 8 1.7-.3 2.9-1.4 4-2.8 0 0 .1-.1.2-.4v3h6.9zm-7.5-8.7c-.2 2.2-2 3.5-4.1 3.4-2.1-.1-3.5-1.2-4-3.3-.6-2.9.1-6.4.1-6.6.6-2 2-2.9 4.1-2.9 2 0 3.6 1.3 3.9 3.4.2 2 .2 4 0 6zM-133.4 394.4h4.9v17.1h7.1v-17.1h5.4l.6-6.3H-121.3v-3.5c.4-3.3 5.9-2.7 5.9-2.7v-5.7c-.2 0-11-2.6-13.1 5.6v.1c-.3 1-.3 5.7-.3 6.3h-4.6v6.2zM-45.4 376.5v35.1h7.4v-2.1c1 .7 2 1.6 3.1 2 4.3 1.6 10 .3 12-5.5 1.3-3.7 1.2-7.5.3-11.3-1.1-4.2-3.9-6.5-8.2-6.9-2.8-.3-5.2.6-7.3 3v-15.1l-7.3.8zm8.1 19c.7-1.2 1.9-1.9 3.4-2 2.2-.1 3.9 1 4.3 3.3.3 2 .3 4.1 0 6.1-.3 2.3-2.2 3.5-4.4 3.4-.5 0-1-.2-1.5-.3-1.8-1-2.3-2.7-2.4-3.8-.1-1.6-.2-5.1.6-6.7zM13.9 411.8c.2 0 .4.1.6.1h.2c.2 0 .5.1.8.1.9.1 2.1.2 3.1.1h.2c4.9-.3 8.7-3.4 9.8-8.1.6-2.6.6-5.2 0-7.9-.9-4.1-3.4-6.7-7.5-7.8-2.6-.7-5.2-.7-7.8 0-3.9 1-6.4 3.5-7.3 7.4-.5 2.1-.5 4.4-.4 6.6.3 5 3.4 8.5 8.1 9.6 0-.2.1-.1.2-.1zm-.9-9.2c-.2-1.7-.2-3.4 0-5 .2-2.6 1.9-4.1 4.3-4 2 0 3.5 1.2 4 3.1.5 2 .1 5.5.1 5.9 0 .2-.1.3-.1.5-.5 2.2-2.1 3.4-4.2 3.3-2.4-.2-3.9-1.5-4.1-3.8zM45.5 388.4l-6.8 10.7v-23.4l-7.5.9v35h7.5v-10.7l6.8 10.7h7.9L46 400l7.4-11.6zM-48.2 395.9c-.6-4.4-3.3-7.2-7.6-7.9-1.6-.3-3.4-.2-5.1-.1-4.6.4-8.1 3.3-8.8 7.6-.4 2.6-.5 5.4-.1 8 .5 3.9 2.4 6.4 5.8 7.7 1.5.5 8.9 2.4 15.5-.9l-.3-1c-.3-1.3-.7-2.6-1-3.8v-.1s-.1 0-.4.1c-.3.1-.6.2-.8.3h-.2c-1 .3-2.4.6-3.9.8-1.3.1-2.5.1-3.8 0-2.1-.3-3.7-1.5-3.6-4.1H-47.9v-1.8c-.1-1.6-.1-3.2-.3-4.8zm-6.5 1.6h-8c0-1.6.2-3.1 1.7-4 1.5-1 3.2-1 4.7-.1 1.6.9 1.7 2.4 1.6 4.1zM-12.1 388.2c-3.9 1-6.4 3.5-7.3 7.4-.5 2.1-.5 4.4-.4 6.5.3 5 3.4 8.5 8.1 9.6h.2c.2 0 .4.1.6.1h.2c.2 0 .5.1.8.1.9.1 2.1.2 3.1.1h.2c4.9-.3 8.7-3.4 9.8-8.1.6-2.6.6-5.2 0-7.9-.9-4.1-3.4-6.7-7.5-7.8-2.6-.7-5.2-.7-7.8 0zm8 8.5c.5 2 .1 5.5.1 5.9 0 .2-.1.3-.1.5-.5 2.2-2.1 3.4-4.2 3.3-2.3-.1-3.9-1.4-4.1-3.7-.2-1.7-.2-3.4 0-5 .2-2.6 1.9-4.1 4.3-4 2-.1 3.5 1 4 3z"/>
    </symbol>
    <symbol id="icon-instagram-text" viewBox="0.182 0.548 511.304 171.879">
      <path d="M47.5 1c-3.4 1.3-9 8.3-12.3 15.2-4.5 9.6-6.5 18.1-6.5 27.9 0 7.1.4 9.4 2.7 14.5 1.5 3.2 3.9 7.2 5.4 8.8 3.4 3.6 9.7 6.5 14 6.6 2.7 0 3.2.4 3.2 2.5 0 1.4-.9 4.7-1.9 7.5-4.4 11.5-13.3 18-25 18-8.3 0-14.3-2.7-16.5-7.4-2.7-5.7-2.1-9.2 2.5-14.8 3.1-3.6 4.3-6 4.7-9.3.4-4 .2-4.6-1.9-5.3-5.7-2.1-12.8 3.2-15 11-.6 2.4-.9 6.9-.6 10.1 1.5 16.4 13.8 24.8 34.2 23.4 11.2-.8 17-3 23.1-9.2C64 94.2 66.7 87.1 68 74.1c1.1-11 1.3-53.1.4-64.4-.7-7.6-.7-7.7-3.8-8.1C57.5.5 49.4.2 47.5 1zm6.2 14.2c.6.8.8 10.6.5 24.5-.4 21.6-.6 23.3-2.3 23.8-3.3 1.1-7.3-1.7-9.9-7-2.3-4.5-2.5-6.2-2.5-17 0-13 1.1-17.7 5.2-22.5 2.6-3.2 7.2-4.1 9-1.8zM174.6 3.7c-.3.8-.6 3.8-.6 6.6 0 2.9-.3 8.2-.7 11.9l-.6 6.8h-4.6c-4.5 0-11.8 1.4-12.8 2.3-.2.3 0 1.4.6 2.5 1 1.8 3.1 2.6 13.9 4.8l2.2.4-.2 23.8c-.3 20.8-.1 24.5 1.6 29.9 3.2 10.6 10.5 17 17.9 15.6 3.7-.7 8.6-6 11.9-12.8 1.5-3.3 2.8-5.1 2.8-4 0 3.3 4.7 12.2 7.2 13.9 1.3.9 4.8 2 7.7 2.6 8.6 1.6 13.6-2 18.7-13.6l1.6-3.9.9 2.9c1.1 4 6.5 9.3 10.1 10 3.9.8 9.1-1.5 11.8-5.2l2.3-3.1 2.1 4.2c2.8 5.4 5.8 7.5 13 8.8 5.3.9 6.2.9 8.5-.9 1.4-1 3.8-4.1 5.3-6.8l2.8-4.9v11.9l-7.4 7.3c-8.2 8-14.2 18.5-17.1 29.8-4.9 19.3 1.3 27.8 20.4 27.9 8.2.1 8.3.1 11.1-3.2 4.7-5.6 5.4-9.8 6-35.2l.5-23.5h3.2c1.8 0 3.8-.6 4.5-1.3 1.1-1.1.9-1.7-1.1-3.3-1.3-1-3.5-1.9-4.9-1.9h-2.5l.5-16.3c.4-12.5.9-17 2.2-19.5l1.7-3.3-3.3-1.3-3.3-1.4v-9c0-8.6-.2-9.2-2.8-12-1.5-1.6-4.7-3.4-7-4.1-2.3-.6-6.3-2.1-8.9-3.3-5.5-2.5-8.4-2-13.2 2.2-6.8 6-10.2 17.8-11.5 39.5-.8 13.9-2.3 18.8-6.1 20-2.8.9-4.7-.9-6-5.4-1.3-4.9-1.3-16.2.2-21.8 1.1-4.4 1-4.7-1.4-6.7-2.3-1.9-2.6-3-3-10.4-.6-10.5-2.1-12.6-11.4-16.4-18.6-7.6-27.9.8-31.4 28.6-.5 4.3-1.4 8.4-1.9 9s-1.7 4.2-2.5 7.9c-2 8.4-4.8 14.2-8.2 16.3-2.4 1.6-2.6 1.6-4.5-.3-3-3-3.9-12.4-3.3-33.3.7-26.2.3-24.7 7-25.6 3.1-.3 8.5-.7 12-.7 6.9-.1 7.9-1 4.4-4.2-1.6-1.4-4.3-2-11.8-2.4l-9.7-.6.2-7c.1-3.9.5-9.2.8-11.8.6-4.7.5-4.8-2.7-6.1-5.6-2.2-10.6-2.7-11.2-.9zm120.1 41.7c2.6 2.3 2.8 2.9 2.7 9.8-.2 13.5-2.8 28.7-6.1 35.3-2.3 4.6-6.4 8.5-9 8.5-1.3 0-3-1.1-4-2.7-2.7-4-2.6-30.4.1-38.3 2.6-7.8 5.4-12 9-13.6 4.1-1.8 4.1-1.8 7.3 1zm-57.9 2.1c2.7 3.5 3.7 10.8 1.8 13.7-.8 1.3-1.9 7.1-2.5 13-1.5 13.4-3.5 20.4-7.1 24-4.2 4.1-7.7 3.8-9.7-1-3.9-9.1-2.3-35.4 2.8-45.3 3.6-7.1 10.9-9.3 14.7-4.4zM297 148.3c-1.8 11.6-6.1 17.6-11.6 16.3-5.2-1.3-6.8-10.7-3.9-22.1 2.2-8.3 7.5-19.2 12.1-24.5l3.9-4.4.3 13.9c.1 7.7-.2 17.1-.8 20.8z"/><path d="M372.5 36.4c-5.1 5.3-8.1 13.3-9.6 26.1-1.4 12-5.4 27.8-8.2 32.9-1.7 3.1-2.8 4.1-4.7 4.1-4 0-5.3-5.5-4.7-20.5.4-9.1 1.1-14.5 2.8-19.9l2.3-7.4-2.2-1.8c-1.4-1.1-4.8-2-9-2.4-3.7-.3-7.4-.7-8.2-.8-1-.2-1.5-1.5-1.5-4.2-.1-5.7-1.1-6.8-5.2-6.2-6.1 1-6.1 1.2-5.6 18 .4 9.8.1 17.9-.7 22.7-1.8 10.6-1.7 11.4.3 11.8 2.7.6 5.3-6.6 7.4-20.8l1.9-12.5h5.9l-.4 13c-.6 25.5 4.7 38.5 15.7 38.5 4.6 0 8.6-3.1 11.5-9l2.5-4.9 1.6 4.3c.9 2.3 2.9 5.4 4.4 6.8 3.3 3.1 12.6 5.4 16.4 3.9 3.3-1.2 7.6-6.5 10.3-12.4l2.1-4.9 1.9 4.2c4.8 10.7 15.8 11.5 22.3 1.7l2.7-4.1.6 5.2c.9 6.6 2 7.9 7.5 8.8 8.7 1.3 8.7 1.2 10.7-13.8 1.7-13.5 4.3-24.8 5.8-24.8.4 0 .9 6.7 1.1 14.9.3 12.9.6 15.2 2.2 17 3.9 4.3 13.6 3.6 13.6-1 0-3.5 4-18 7.3-26.4l3.2-8 .5 14c.4 12.4.8 14.6 3 18.9 1.4 2.8 3.7 5.9 5.2 7 3.7 2.7 10.8 2.7 14.4 0 7.7-5.7 15.7-30.4 9.9-30.4-1.8 0-3 2.4-4 7.5-2.3 12.8-10 20.1-13.5 12.7-2.1-4.3-2.4-21.5-.5-29.7 3-13 3.1-12-.9-15-2.5-1.9-5.3-3-8.5-3.3l-4.7-.4-2.6 5.8c-1.5 3.3-4.8 12-7.5 19.4l-4.8 13.5-.3-15.2-.3-15.3-2.9-1.5c-8-4.1-12.2-.4-16.9 15.1-1.8 6-3.4 11.3-3.6 11.9-.2.5-.4-7.6-.4-18.2-.1-11.9-.5-19.4-1.1-19.8-.6-.4-3.5-.9-6.4-1.2l-5.4-.6-.4 18.9c-.4 15.9-.8 19.9-2.6 25.5-3.9 11.7-8.9 15.3-11.8 8.4-1.7-4.1-1.9-19.2-.3-25 1-3.6.9-4.1-1.4-6-2.1-1.7-2.5-3.2-3.1-9.9-.8-8.9-2.3-12.7-5.8-14.2-10.5-4.9-12.3-5.4-17.5-5.4-5.4 0-5.9.2-9.8 4.4zM392 46c3.3 1.8 5.5 13.1 3 15.6-.5.5-1.5 5.7-2 11.4-1.4 13.6-3.6 21.3-7.1 25.1-3.7 3.9-7.8 3.7-9.8-.5-3.4-7.2-3.2-27.5.4-40 3-10.1 9.3-14.9 15.5-11.6zM80.6 39.8c-.8 1.4-2.9 48.8-2.4 54.4.7 6.6 2.9 8.8 8.7 8.8 2.5 0 5.1-.4 5.7-.8.7-.4 1.9-4.5 2.8-9.2 1.9-9.3 4.9-19.1 7.1-23 1.3-2.3 1.4-1.4 1.5 9.5 0 13.3 1.4 17.9 6 20.3 3.3 1.7 9.6.9 13.2-1.8 3-2.2 3-2.2 4.4-.2 3.2 4.6 17 7.3 26.7 5.2 7.3-1.5 11.7-5 11.7-9.4 0-4.3-1.5-6.2-11.9-14.6-10.4-8.4-12.1-10.6-12.1-15.5 0-7.2 8.9-11.5 14.1-6.9 2.4 2.2 4.5 1.7 7.4-1.7 2.1-2.5 2.5-4 2.3-7.3-.3-3.4-.8-4.3-3.3-5.5-5.6-2.7-23.9 2.2-30.4 8.2-5.2 4.8-6.4 12.2-3.1 18.6 1.5 3.1 1.7 4 .6 4.4-.7.3-1.6 2.5-2 4.8-1.6 10.1-6.9 17-10.5 13.5-1.3-1.4-1.6-4.4-1.8-18-.1-12.5-.5-17.1-1.7-19.4-1.7-3.3-5.6-4.8-8.6-3.2-2.5 1.3-6.5 8.2-10.1 17.3l-2.8 7.2-.1-16.2c0-15.7-.1-16.3-2.2-17.7-3.1-1.9-8.5-2.9-9.2-1.8zm66.9 47.5c2.4 2.1 4.5 4.6 4.8 5.7 1.5 5.6-6.7 7.2-13.1 2.5-2.1-1.5-4.9-3.5-6.5-4.4-1.7-1-2.5-2.1-2.1-3.1.3-.8 1.1-4 1.7-7.1l1.1-5.7 5 4.2c2.7 2.2 6.8 5.8 9.1 7.9z"/>
    </symbol>
    <symbol id="icon-instagram" viewBox="-174 385.6 245.3 71.3">
      <clipPath id="SVGID_2_"><use xlink:href="#SVGID_1_" overflow="visible"/></clipPath><path class="st0" d="M-121.2 410.3h-4.4c.3 1.2.5 2.5.5 3.9 0 8.5-6.9 15.5-15.5 15.5-8.5 0-15.5-6.9-15.5-15.5 0-1.3.2-2.6.5-3.9h-4.4v21.3c0 1.1.9 1.9 1.9 1.9h34.8c1.1 0 1.9-.9 1.9-1.9v-21.3zm0-13.5c0-1.1-.9-1.9-1.9-1.9h-5.8c-1.1 0-1.9.9-1.9 1.9v5.8c0 1.1.9 1.9 1.9 1.9h5.8c1.1 0 1.9-.9 1.9-1.9v-5.8zm-19.3 7.7c-5.3 0-9.7 4.3-9.7 9.7 0 5.3 4.3 9.7 9.7 9.7 5.3 0 9.7-4.3 9.7-9.7 0-5.3-4.4-9.7-9.7-9.7m19.3 34.8h-38.7c-3.2 0-5.8-2.6-5.8-5.8v-38.7c0-3.2 2.6-5.8 5.8-5.8h38.7c3.2 0 5.8 2.6 5.8 5.8v38.7c0 3.2-2.6 5.8-5.8 5.8"/><path class="st1" d="M-87.8 395.6c-1.1.4-3 2.8-4.2 5.1-1.5 3.2-2.2 6.1-2.2 9.4 0 2.4.1 3.2.9 4.9.5 1.1 1.3 2.4 1.8 3 1.1 1.2 3.3 2.2 4.7 2.2.9 0 1.1.1 1.1.8 0 .5-.3 1.6-.6 2.5-1.5 3.9-4.5 6.1-8.4 6.1-2.8 0-4.8-.9-5.6-2.5-.9-1.9-.7-3.1.8-5 1-1.2 1.5-2 1.6-3.1.1-1.4.1-1.6-.6-1.8-1.9-.7-4.3 1.1-5.1 3.7-.2.8-.3 2.3-.2 3.4.5 5.5 4.7 8.4 11.6 7.9 3.8-.3 5.7-1 7.8-3.1 2.2-2.1 3.1-4.5 3.5-8.9.4-3.7.4-17.9.1-21.8-.2-2.4-.2-2.4-1.2-2.6-2.4-.3-5.2-.4-5.8-.2zm2.1 4.8c.2.3.3 3.6.2 8.3-.1 7.3-.2 7.9-.8 8-1.1.4-2.5-.6-3.3-2.4-.8-1.5-.8-2.1-.8-5.7 0-4.4.4-6 1.8-7.6.7-1 2.3-1.3 2.9-.6zm40.8-3.8c-.1.3-.2 1.3-.2 2.2 0 1-.1 2.8-.2 4l-.2 2.3h-1.6c-1.5 0-4 .5-4.3.8-.1.1 0 .5.2.8.3.6 1 .9 4.7 1.6l.7.1-.1 8c-.1 7 0 8.3.5 10.1 1.1 3.6 3.5 5.7 6 5.3 1.3-.2 2.9-2 4-4.3.5-1.1.9-1.7.9-1.4 0 1.1 1.6 4.1 2.4 4.7.4.3 1.6.7 2.6.9 2.9.5 4.6-.7 6.3-4.6l.5-1.3.3 1c.4 1.4 2.2 3.1 3.4 3.4 1.3.3 3.1-.5 4-1.8l.8-1 .7 1.4c.9 1.8 2 2.5 4.4 3 1.8.3 2.1.3 2.9-.3.5-.3 1.3-1.4 1.8-2.3l.9-1.7v4L-6 434c-2.8 2.7-4.8 6.3-5.8 10.1-1.7 6.5.4 9.4 6.9 9.4 2.8 0 2.8 0 3.8-1.1 1.6-1.9 1.8-3.3 2-11.9l.2-7.9h1.1c.6 0 1.3-.2 1.5-.4.4-.4.3-.6-.4-1.1-.4-.3-1.2-.6-1.7-.6h-.5l.2-5.5c.1-4.2.3-5.7.7-6.6l.6-1.1-1.1-.4-1.1-.5v-3c0-2.9-.1-3.1-.9-4.1-.5-.5-1.6-1.1-2.4-1.4-.8-.2-2.1-.7-3-1.1-1.9-.8-2.8-.7-4.5.7-2.3 2-3.4 6-3.9 13.3-.3 4.7-.8 6.4-2.1 6.8-.9.3-1.6-.3-2-1.8-.4-1.7-.4-5.5.1-7.4.4-1.5.3-1.6-.5-2.3-.8-.6-.9-1-1-3.5-.2-3.5-.7-4.3-3.9-5.5-6.3-2.6-9.4.3-10.6 9.7-.2 1.5-.5 2.8-.6 3-.2.2-.6 1.4-.8 2.7-.7 2.8-1.6 4.8-2.8 5.5-.8.5-.9.5-1.5-.1-1-1-1.3-4.2-1.1-11.3.2-8.9.1-8.3 2.4-8.7 1-.1 2.9-.2 4.1-.2 2.3 0 2.7-.3 1.5-1.4-.5-.5-1.5-.7-4-.8l-3.3-.2.1-2.4c0-1.3.2-3.1.3-4 .2-1.6.2-1.6-.9-2.1-2.1-.7-3.8-.9-4-.2zm40.6 14c.9.8.9 1 .9 3.3-.1 4.6-.9 9.7-2.1 11.9-.8 1.6-2.2 2.9-3 2.9-.4 0-1-.4-1.4-.9-.9-1.4-.9-10.3 0-12.9.9-2.6 1.8-4.1 3-4.6 1.5-.6 1.5-.6 2.6.3zm-19.5.8c.9 1.2 1.3 3.6.6 4.6-.3.4-.6 2.4-.8 4.4-.5 4.5-1.2 6.9-2.4 8.1-1.4 1.4-2.6 1.3-3.3-.3-1.3-3.1-.8-12 .9-15.3 1.2-2.5 3.7-3.2 5-1.5zm20.3 34c-.6 3.9-2.1 5.9-3.9 5.5-1.8-.4-2.3-3.6-1.3-7.5.7-2.8 2.5-6.5 4.1-8.3l1.3-1.5.1 4.7c0 2.7-.1 5.9-.3 7.1z"/><path class="st1" d="M22 407.6c-1.7 1.8-2.7 4.5-3.2 8.8-.5 4.1-1.8 9.4-2.8 11.1-.6 1-.9 1.4-1.6 1.4-1.4 0-1.8-1.9-1.6-6.9.1-3.1.4-4.9.9-6.7l.8-2.5-.7-.6c-.5-.4-1.6-.7-3-.8-1.3-.1-2.5-.2-2.8-.3-.3-.1-.5-.5-.5-1.4 0-1.9-.4-2.3-1.8-2.1-2.1.3-2.1.4-1.9 6.1.1 3.3 0 6-.2 7.7-.6 3.6-.6 3.9.1 4 .9.2 1.8-2.2 2.5-7l.6-4.2h2l-.1 4.4c-.2 8.6 1.6 13 5.3 13 1.6 0 2.9-1 3.9-3l.8-1.7.5 1.5c.3.8 1 1.8 1.5 2.3 1.1 1 4.3 1.8 5.5 1.3 1.1-.4 2.6-2.2 3.5-4.2l.7-1.7.6 1.4c1.6 3.6 5.3 3.9 7.5.6l.9-1.4.2 1.8c.3 2.2.7 2.7 2.5 3 2.9.4 2.9.4 3.6-4.7.6-4.6 1.5-8.4 2-8.4.1 0 .3 2.3.4 5 .1 4.4.2 5.1.7 5.7 1.3 1.5 4.6 1.2 4.6-.3 0-1.2 1.4-6.1 2.5-8.9l1.1-2.7.2 4.7c.1 4.2.3 4.9 1 6.4.5.9 1.3 2 1.8 2.4 1.3.9 3.6.9 4.9 0 2.6-1.9 5.3-10.3 3.3-10.3-.6 0-1 .8-1.4 2.5-.8 4.3-3.4 6.8-4.6 4.3-.7-1.5-.8-7.3-.2-10 1-4.4 1-4.1-.3-5.1-.8-.6-1.8-1-2.9-1.1l-1.6-.1-.9 2c-.5 1.1-1.6 4.1-2.5 6.6l-1.6 4.6-.1-5.1-.1-5.2-1-.5c-2.7-1.4-4.1-.1-5.7 5.1-.6 2-1.1 3.8-1.2 4-.1.2-.1-2.6-.1-6.2 0-4-.2-6.6-.4-6.7s-1.2-.3-2.2-.4l-1.8-.2-.1 6.4c-.1 5.4-.3 6.7-.9 8.6-1.3 4-3 5.2-4 2.8-.6-1.4-.6-6.5-.1-8.4.3-1.2.3-1.4-.5-2-.7-.6-.8-1.1-1-3.3-.3-3-.8-4.3-2-4.8-3.5-1.7-4.2-1.8-5.9-1.8-1.6-.3-1.8-.2-3.1 1.2zm6.6 3.3c1.1.6 1.9 4.4 1 5.3-.2.2-.5 1.9-.7 3.9-.5 4.6-1.2 7.2-2.4 8.5-1.3 1.3-2.6 1.3-3.3-.2-1.1-2.4-1.1-9.3.1-13.5 1.1-3.5 3.2-5.2 5.3-4zm-105.2-2.1c-.3.5-1 16.5-.8 18.4.2 2.2 1 3 2.9 3 .8 0 1.7-.1 1.9-.3.2-.1.6-1.5.9-3.1.6-3.1 1.7-6.5 2.4-7.8.4-.8.5-.5.5 3.2 0 4.5.5 6 2 6.9 1.1.6 3.2.3 4.5-.6 1-.7 1-.7 1.5-.1 1.1 1.6 5.7 2.5 9 1.8 2.5-.5 4-1.7 4-3.2 0-1.5-.5-2.1-4-4.9-3.5-2.8-4.1-3.6-4.1-5.2 0-2.4 3-3.9 4.8-2.3.8.7 1.5.6 2.5-.6.7-.8.8-1.4.8-2.5-.1-1.1-.3-1.5-1.1-1.9-1.9-.9-8.1.7-10.3 2.8-1.8 1.6-2.2 4.1-1 6.3.5 1 .6 1.4.2 1.5-.2.1-.5.8-.7 1.6-.5 3.4-2.3 5.7-3.5 4.6-.4-.5-.5-1.5-.6-6.1 0-4.2-.2-5.8-.6-6.6-.6-1.1-1.9-1.6-2.9-1.1-.8.4-2.2 2.8-3.4 5.8l-.9 2.4v-5.5c0-5.3 0-5.5-.7-6-1.3-.6-3.1-.9-3.3-.5zm22.6 16c.8.7 1.5 1.6 1.6 1.9.5 1.9-2.3 2.4-4.4.8-.7-.5-1.7-1.2-2.2-1.5-.6-.3-.8-.7-.7-1 .1-.3.4-1.4.6-2.4l.4-1.9 1.7 1.4c.8.8 2.2 2 3 2.7z"/>
    </symbol>
    <symbol id="icon-logo-emblem" viewBox="0 0 78.7 94">
      <path id="XMLID_2_" class="st0" d="M65.9 18.5c.8 4.5 1.5 9 2.3 13.5.1.7.4 1.3.3 2-2 9.8-4.2 19.8-11.4 27.3-6.9 7.1-16.4 7-25.3 6.9-5.4-.1-10.8-2.4-16.2-3.8-.9-.2-1.9-.9-2.3-1.7-4-6.8-8.6-13.3-11.7-20.5-2.9-6.6-.9-13.6 1.9-20.1C8.2 10.9 15.8 2.3 28.4.6 40.3-.9 52-.2 61.1 9.7c0 0 3.8 5.1 4.8 8.8M34.7 54c7-.2 10.2-4 11.6-9 1.7-6.5 7-12.4 2.4-20-6-9.8-16.5-12.5-25.7-5.7-1 .7-1.8 2-2.1 3.2-1.5 6.4-2.2 12.7-.1 19.2C22 45.6 31.8 54 34.7 54z"/><path id="XMLID_1_" class="st0" d="M10.6 85.4c-.2-4.3.9-6.7 6.1-7.5 16.5-2.7 32.9-6.3 49.4-9.2 2-.3 4.5 1.2 6.5 2.4 1.3.8 2.2 2.5 3.2 3.7 4.6 5.2 3.6 7.2-2.5 10.7-7 4.1-14.6 3.5-22 4.6C40.7 91.6 30 92 19.4 93.6c-6.9 1.2-8.5-.4-8.8-8.2z"/>
    </symbol>
    <symbol id="icon-mute-hover" viewBox="0 0 24 24">
      <g class="st0"><g class="st1"><g class="st2"><path class="st3" d="M0 0h24v24H0z"/></g><circle class="st4" cx="12" cy="12" r="10"/><path class="st4" d="M20 21H4c-.5 0-1-.5-1-1V4c0-.5.5-1 1-1h16c.5 0 1 .5 1 1v16c0 .5-.5 1-1 1z"/><path class="st4" d="M18 22H6c-.6 0-1-.4-1-1V3c0-.6.4-1 1-1h12c.6 0 1 .4 1 1v18c0 .6-.4 1-1 1z"/><path class="st4" d="M2 18V6c0-.6.4-1 1-1h18c.6 0 1 .4 1 1v12c0 .6-.4 1-1 1H3c-.6 0-1-.4-1-1z"/></g></g><path d="M7 15c0 .5.4 1 1 1h3l3.4 2.8c.2.1.4.2.6.2.6 0 1-.4 1-1v-.6l3.3 3.3c.4.4 1 .4 1.4 0 .4-.4.4-1 0-1.4l-16-16c-.4-.4-1-.4-1.4 0s-.4 1 0 1.4l3.8 3.8c0 .2-.1.3-.1.5v6zM16 6c0-.6-.4-1-1-1-.2 0-.4.1-.6.2l-2.7 2.2 4.3 4.3V6z"/>
    </symbol>
    <symbol id="icon-mute" viewBox="0 0 24 24">
      <g class="st0"><g class="st1"><g class="st2"><path class="st3" d="M0 0h24v24H0z"/></g><circle class="st4" cx="12" cy="12" r="10"/><path class="st4" d="M20 21H4c-.5 0-1-.5-1-1V4c0-.5.5-1 1-1h16c.5 0 1 .5 1 1v16c0 .5-.5 1-1 1z"/><path class="st4" d="M18 22H6c-.6 0-1-.4-1-1V3c0-.6.4-1 1-1h12c.6 0 1 .4 1 1v18c0 .6-.4 1-1 1z"/><path class="st4" d="M2 18V6c0-.6.4-1 1-1h18c.6 0 1 .4 1 1v12c0 .6-.4 1-1 1H3c-.6 0-1-.4-1-1z"/></g></g><path d="M7 15c0 .5.4 1 1 1h3l3.4 2.8c.2.1.4.2.6.2.6 0 1-.4 1-1v-.6l3.3 3.3c.4.4 1 .4 1.4 0 .4-.4.4-1 0-1.4l-16-16c-.4-.4-1-.4-1.4 0s-.4 1 0 1.4l3.8 3.8c0 .2-.1.3-.1.5v6zM16 6c0-.6-.4-1-1-1-.2 0-.4.1-.6.2l-2.7 2.2 4.3 4.3V6z"/>
    </symbol>
    <symbol id="icon-next" viewBox="-205 297 200 200">
      <path class="st0" d="M-105 297c-55.2 0-100 44.8-100 100s44.8 100 100 100S-5 452.2-5 397s-44.8-100-100-100zm37.5 137.5h-25V397l-50 37.5v-75l50 37.5v-37.5h25v75z"/>
    </symbol>
    <symbol id="icon-prev" viewBox="-205 297 200 200">
      <path class="st0" d="M-104 297c-55.2 0-100 44.8-100 100s44.8 100 100 100S-4 452.2-4 397c-.1-55.2-44.8-99.9-100-100zm-17.8 150.8H-151v-96.6h29.1v96.6zm62.1-2.1c0 1.5-1.3 2.8-2.8 2.8-.7 0-1.4-.3-1.9-.8l-46-46c-1.1-1.1-1.1-2.8 0-3.9l46-46c1.1-1.1 2.9-1.1 3.9 0 .5.5.8 1.2.8 1.9v92z"/>
    </symbol>
    <symbol id="icon-spotify" viewBox="0 0 566.93 170.04">
      <path d="M87.996 1.277c-46.249 0-83.743 37.493-83.743 83.742 0 46.254 37.494 83.745 83.743 83.745 46.251 0 83.743-37.491 83.743-83.745 0-46.246-37.49-83.738-83.744-83.738zm38.404 120.78a5.217 5.217 0 0 1-7.177 1.737c-19.665-12.019-44.417-14.734-73.567-8.075a5.217 5.217 0 0 1-6.249-3.925 5.212 5.212 0 0 1 3.926-6.249c31.9-7.293 59.263-4.154 81.336 9.334 2.46 1.51 3.24 4.72 1.73 7.18zm10.25-22.799c-1.894 3.073-5.912 4.037-8.981 2.15-22.505-13.834-56.822-17.841-83.447-9.759-3.453 1.043-7.1-.903-8.148-4.35a6.538 6.538 0 0 1 4.354-8.143c30.413-9.228 68.221-4.758 94.071 11.127 3.07 1.89 4.04 5.91 2.15 8.976zm.88-23.744c-26.994-16.031-71.52-17.505-97.289-9.684-4.138 1.255-8.514-1.081-9.768-5.219a7.835 7.835 0 0 1 5.221-9.771c29.581-8.98 78.756-7.245 109.83 11.202a7.833 7.833 0 0 1 2.737 10.733c-2.2 3.722-7.02 4.949-10.73 2.739zM232.09 78.586c-14.459-3.448-17.033-5.868-17.033-10.953 0-4.804 4.523-8.037 11.249-8.037 6.52 0 12.985 2.455 19.763 7.509a.945.945 0 0 0 .715.174.934.934 0 0 0 .625-.386l7.06-9.952a.949.949 0 0 0-.18-1.288c-8.067-6.473-17.151-9.62-27.769-9.62-15.612 0-26.517 9.369-26.517 22.774 0 14.375 9.407 19.465 25.663 23.394 13.836 3.187 16.171 5.857 16.171 10.63 0 5.289-4.722 8.577-12.321 8.577-8.44 0-15.324-2.843-23.025-9.512a.992.992 0 0 0-.695-.226.94.94 0 0 0-.65.334l-7.916 9.421a.94.94 0 0 0 .094 1.313c8.96 7.999 19.98 12.224 31.872 12.224 16.823 0 27.694-9.192 27.694-23.419.03-12.01-7.16-18.66-24.77-22.944zM294.95 64.326c-7.292 0-13.273 2.872-18.205 8.757v-6.624a.949.949 0 0 0-.946-.949h-12.947a.948.948 0 0 0-.946.949v73.602c0 .523.423.949.946.949h12.947a.949.949 0 0 0 .946-.949v-23.233c4.933 5.536 10.915 8.241 18.205 8.241 13.549 0 27.265-10.43 27.265-30.368.02-19.943-13.7-30.376-27.25-30.376zm12.21 30.375c0 10.153-6.254 17.238-15.209 17.238-8.853 0-15.531-7.407-15.531-17.238 0-9.83 6.678-17.238 15.531-17.238 8.81-.001 15.21 7.247 15.21 17.237zM357.37 64.326c-17.449 0-31.119 13.436-31.119 30.592 0 16.969 13.576 30.264 30.905 30.264 17.511 0 31.223-13.391 31.223-30.481 0-17.031-13.62-30.373-31.01-30.373zm0 47.714c-9.281 0-16.278-7.457-16.278-17.344 0-9.929 6.755-17.134 16.064-17.134 9.341 0 16.385 7.457 16.385 17.351 0 9.927-6.8 17.127-16.17 17.127zM425.64 65.51h-14.247V50.944a.947.947 0 0 0-.945-.948h-12.945a.95.95 0 0 0-.949.948V65.51h-6.225a.947.947 0 0 0-.943.949v11.127c0 .522.422.949.943.949h6.225v28.791c0 11.635 5.791 17.534 17.212 17.534 4.644 0 8.497-.959 12.128-3.018a.944.944 0 0 0 .478-.821v-10.596a.948.948 0 0 0-1.372-.85c-2.494 1.255-4.905 1.834-7.6 1.834-4.154 0-6.007-1.886-6.007-6.113V78.54h14.247a.946.946 0 0 0 .944-.949V66.465a.918.918 0 0 0-.93-.949zM475.28 65.567v-1.789c0-5.263 2.018-7.61 6.544-7.61 2.699 0 4.867.536 7.295 1.346a.946.946 0 0 0 1.245-.902v-10.91a.947.947 0 0 0-.67-.909c-2.565-.763-5.847-1.546-10.761-1.546-11.958 0-18.279 6.734-18.279 19.467v2.74h-6.22a.952.952 0 0 0-.95.948v11.184c0 .522.428.949.95.949h6.22v44.409c0 .523.422.949.944.949h12.947a.95.95 0 0 0 .949-.949V78.538h12.088l18.517 44.398c-2.102 4.665-4.169 5.593-6.991 5.593-2.281 0-4.683-.681-7.139-2.025a.972.972 0 0 0-.754-.071.957.957 0 0 0-.56.511l-4.388 9.627a.942.942 0 0 0 .408 1.225c4.581 2.481 8.716 3.54 13.827 3.54 9.56 0 14.844-4.453 19.502-16.433l22.461-58.04a.947.947 0 0 0-.879-1.293h-13.478a.951.951 0 0 0-.897.636l-13.807 39.438-15.123-39.464a.945.945 0 0 0-.884-.61h-22.12zM446.5 65.51h-12.947a.95.95 0 0 0-.949.949v56.485a.95.95 0 0 0 .949.949H446.5a.951.951 0 0 0 .949-.949V66.463a.947.947 0 0 0-.95-.949zM440.1 39.791c-5.129 0-9.291 4.152-9.291 9.281 0 5.132 4.163 9.289 9.291 9.289 5.127 0 9.285-4.157 9.285-9.289 0-5.128-4.16-9.281-9.28-9.281zM553.52 83.671c-5.124 0-9.111-4.115-9.111-9.112s4.039-9.159 9.159-9.159a9.074 9.074 0 0 1 9.111 9.107c0 4.997-4.04 9.164-9.16 9.164zm.05-17.365c-4.667 0-8.198 3.71-8.198 8.253 0 4.541 3.506 8.201 8.151 8.201 4.666 0 8.201-3.707 8.201-8.253 0-4.541-3.51-8.201-8.15-8.201zm2.02 9.138l2.577 3.608h-2.173l-2.32-3.31h-1.995v3.31h-1.819v-9.564h4.265c2.222 0 3.683 1.137 3.683 3.051.01 1.568-.9 2.526-2.21 2.905zm-1.54-4.315h-2.372v3.025h2.372c1.184 0 1.891-.579 1.891-1.514 0-.984-.71-1.511-1.89-1.511z"/>
    </symbol>
    <symbol id="icon-tidal" viewBox="-162.7 360 245.3 71.3">
      <path class="st0" d="M-46.3 362l1.9 1.9 4.2 4.2v.1l-6.1 6.1-6.1-6.1c.1-.2.3-.3.5-.5 1.9-1.9 3.8-3.8 5.6-5.7zm12.3 0c.1.1.2.2.3.2l5.9 5.9c0 .1-.2.2-.2.3l-5.9 5.9c-2.1-2-4.1-4.1-6.1-6.1 1.9-2.1 4-4.1 6-6.2zm12.3 0c.5.5.9.8 1.3 1.3l4.6 4.6c.1.1.2.2.2.3-2.1 2-4.1 4.1-6.1 6.1l-5.9-5.9-.3-.3 3.1-3.1c1.1-1 2.1-2 3.1-3zM-40 380.3l6-6h.1c2 2 4 4.1 6.1 6.1-.1.2-.2.2-.3.4l-4.4 4.4c-.5.5-.9 1-1.4 1.4-.7-.6-1.3-1.3-2-2l-4.1-4.1v-.2zm-63.1 26.5h18.3v4.4h-6.6v18.2h-5.1v-18.2h-6.6v-4.4zm33.6 0h5.1v22.6h-5.1v-6-16.6zm90.7 0h5.1v18h9v4.5H21.2v-22.5zm-48.3 7.6c-.5-1.8-1.5-3.4-2.9-4.6-1.8-1.6-4.2-2.5-6.7-2.8-1.4-.2-2.7-.1-4.1-.2h-6.5V429.4h8.8c.8-.1 1.6-.1 2.4-.3 2.7-.5 5.2-1.8 7-3.9 1.3-1.5 2.1-3.4 2.3-5.4.3-1.9.2-3.7-.3-5.4zm-5.8 7.5c-.6 1-1.6 1.8-2.7 2.3-1 .5-2.1.7-3.2.7h-3.4c-.1-1.3 0-2.5 0-3.8v-9.9h3.5c1.8 0 3.6.6 4.9 1.9 1.2 1.1 1.8 2.7 1.9 4.3.1 1.5-.2 3.1-1 4.5zm38.3 2.2c-2.2-5.2-4.3-10.5-6.5-15.7-.2-.5-.4-1.1-.6-1.6H-7c-3 7.3-6.1 14.6-9.1 21.9-.1.2-.2.5-.3.7h5.5c.5-1.5 1.1-3 1.7-4.5H.1c.2 0 .2.1.2.2.5 1.4 1.1 2.8 1.6 4.3h5.7c-.7-1.8-1.5-3.6-2.2-5.3zm-13.2-3.2c0-.2.1-.4.2-.6 1-2.7 2.1-5.4 3.1-8.1h.1c1.1 2.9 2.2 5.7 3.3 8.6v.2c-2.3-.2-4.5-.2-6.7-.1z"/>
    </symbol></svg>