<?xml version="1.0" encoding="utf-8"?>
<!-- Generator: Adobe Illustrator 19.0.0, SVG Export Plug-In . SVG Version: 6.00 Build 0)  -->
<svg version="1.1" xmlns="http://www.w3.org/2000/svg" xmlns:xlink="http://www.w3.org/1999/xlink" x="0px" y="0px"
	 viewBox="-29 276.5 711 194.5" style="enable-background:new -29 276.5 711 194.5;" xml:space="preserve">
<style type="text/css">
	.st0{fill:#FFFFFF;}
</style>
<g id="Layer_2">
</g>
<g id="Layer_1">
	<g id="XMLID_26_">
		<path id="XMLID_46_" class="st0" d="M78,373.6v-31.1H49v31.1H35.1v-73.5l13.9-0.5v31.6h28.9v-31.1h13.9v73.5H78z"/>
		<path id="XMLID_45_" class="st0" d="M149.5,300.1l28.5,72.6l-14,1.9l-6.6-18.4h-27.9l-6.5,17.4h-14l28.6-73.5H149.5z M143.2,319.4
			l-9.6,25.6H153L143.2,319.4z"/>
		<path id="XMLID_44_" class="st0" d="M208.1,300.1v45.7c0,5.8,1.5,10.2,4.4,13.1c2.9,2.9,6.8,4.4,11.7,4.4s8.8-1.5,11.7-4.5
			s4.4-7.3,4.4-13v-45.7h14.1v46.8c0,5.3-1.3,10.1-3.8,14.3c-2.5,4.2-6.1,7.5-10.7,9.9c-4.6,2.4-9.9,3.6-16,3.6
			c-6,0-11.2-1.2-15.8-3.6c-4.5-2.4-8-5.7-10.5-10c-2.4-4.2-3.7-9-3.7-14.3l-0.1-46.8h14.3V300.1z"/>
		<path id="XMLID_43_" class="st0" d="M278.5,373.6v-73.5h13.9l34,49v-49h14v73.5h-14l-34-49.1v49.1H278.5z"/>
		<path id="XMLID_42_" class="st0" d="M419.2,311.2H394v62.4h-14.1v-62.4h-22.3v-11H417L419.2,311.2z"/>
		<path id="XMLID_39_" class="st0" d="M436.3,373.6v-73.5h43.8l2.2,11h-32.1v19.8h24l2.3,11.1h-26.2v20.6h35.2l2.3,10.9h-51.5V373.6
			z"/>
		<path id="XMLID_35_" class="st0" d="M533.7,373.6h-27.9v-73.5h27.9c7.4,0,13.7,1.5,18.7,4.6c5.1,3.1,8.9,7.3,11.3,12.7
			c2.5,5.4,3.7,11.8,3.7,19c0,11.6-2.9,20.6-8.8,27.2C552.9,370.1,544.5,373.4,533.7,373.6z M534.3,312h-14.5v49.8h13.7
			c6.2,0,11-2,14.4-6.1s5.1-10.5,5.1-19.3c0-7.8-1.5-13.9-4.6-18.1C545.3,314.1,540.6,312,534.3,312z"/>
		<path id="XMLID_34_" class="st0" d="M45.1,424.3l-17.6-22.6v44.9H13.6v-73.5h8.9L47.3,407l22.6-33.9h8.5v73.5H64.3v-42.3
			l-13.8,19.3L45.1,424.3z"/>
		<path id="XMLID_33_" class="st0" d="M136,373.1l28.5,72.6l-14,1.9l-6.6-18.4H116l-6.5,17.4h-14l28.6-73.4H136V373.1z M129.7,392.4
			l-9.6,25.6h19.4L129.7,392.4z"/>
		<path id="XMLID_32_" class="st0" d="M181.5,446.6v-73.5h13.9l34,49v-49h14v73.5h-14l-34-49.1v49.1H181.5z"/>
		<path id="XMLID_31_" class="st0" d="M264.6,441.7l3.1-11.3c2.7,1.4,5.7,2.6,9.1,3.6s6.5,1.6,9.3,1.6c4.3,0,7.6-0.7,9.8-2.1
			c2.2-1.4,3.3-3.3,3.3-5.9c0-1.8-0.9-3.4-2.6-4.9c-1.8-1.5-4.5-3.2-8.2-5.2l-3.2-1.9c-4.8-2.9-8.7-5.4-11.5-7.5
			c-2.8-2.1-5.3-4.6-7.3-7.4c-2.1-2.8-3.1-6-3.1-9.6c0-3.7,1-7.1,3-10.1s4.9-5.3,8.7-7c3.8-1.7,8.3-2.5,13.6-2.5
			c6.2,0,13.1,1.8,20.7,5.5l-4.6,11.2c-3-1.4-5.6-2.6-8-3.3c-2.4-0.8-5-1.2-7.8-1.2c-3.2,0-5.9,0.6-7.9,1.9
			c-2.1,1.3-3.1,3.1-3.1,5.6c0,2.1,0.8,3.8,2.4,5.2s4.3,3.2,7.9,5.3l3.5,1.9l3.1,1.8c4.2,2.4,7.6,4.6,10.2,6.4
			c2.5,1.8,4.6,4.1,6.3,6.7c1.7,2.6,2.5,5.7,2.5,9.2c0,4-1.1,7.5-3.2,10.5s-5.3,5.4-9.4,7.1c-4.1,1.7-9.1,2.6-14.8,2.6
			c-3,0-6.8-0.7-11.3-2C270.5,444.7,267,443.2,264.6,441.7z"/>
		<path id="XMLID_30_" class="st0" d="M332.4,446.6v-73.5h13.9v73.5H332.4z"/>
		<path id="XMLID_29_" class="st0" d="M402.1,371.4c7.4,0,13.9,1.7,19.3,5c5.5,3.3,9.6,7.9,12.5,13.7c2.8,5.8,4.3,12.2,4.3,19.3
			c0,7.5-1.5,14.1-4.5,19.9c-3,5.8-7.3,10.3-12.7,13.6c-5.4,3.3-11.7,5-18.8,5.1c-7.4,0-13.8-1.7-19.3-5c-5.4-3.3-9.6-7.9-12.4-13.6
			s-4.3-12.1-4.3-19.3c0-7.4,1.5-14,4.5-19.9c3-5.8,7.2-10.4,12.7-13.7C388.7,373.3,395,371.6,402.1,371.4z M380.7,410.1
			c0,5.1,0.9,9.7,2.6,13.7s4.2,7.1,7.4,9.3c3.2,2.2,7,3.3,11.3,3.3c4,0,7.7-1,11-3s5.9-5,7.8-9.1s2.9-9,2.9-14.9
			c0-5-0.9-9.5-2.6-13.5s-4.2-7.1-7.5-9.3c-3.2-2.2-7-3.3-11.2-3.3c-3.9,0-7.5,1.1-10.7,3.3c-3.3,2.2-5.9,5.3-7.9,9.4
			C381.7,400.1,380.7,404.7,380.7,410.1z"/>
		<path id="XMLID_28_" class="st0" d="M457.9,446.6v-73.5h13.9l34,49v-49h14v73.5h-14l-34-49.1v49.1H457.9z"/>
		<path id="XMLID_27_" class="st0" d="M541,441.7l3.1-11.3c2.7,1.4,5.7,2.6,9.1,3.6c3.4,1,6.5,1.6,9.3,1.6c4.3,0,7.6-0.7,9.8-2.1
			s3.3-3.3,3.3-5.9c0-1.8-0.9-3.4-2.6-4.9c-1.8-1.5-4.5-3.2-8.2-5.2l-3.2-1.9c-4.8-2.9-8.7-5.4-11.5-7.5c-2.8-2.1-5.3-4.6-7.3-7.4
			c-2.1-2.8-3.1-6-3.1-9.6c0-3.7,1-7.1,3-10.1s4.9-5.3,8.7-7c3.8-1.7,8.3-2.5,13.6-2.5c6.2,0,13.1,1.8,20.7,5.5l-4.6,11.2
			c-3-1.4-5.6-2.6-8-3.3c-2.4-0.8-5-1.2-7.8-1.2c-3.2,0-5.9,0.6-7.9,1.9c-2.1,1.3-3.1,3.1-3.1,5.6c0,2.1,0.8,3.8,2.4,5.2
			c1.6,1.4,4.3,3.2,7.9,5.3l3.5,1.9l3.1,1.8c4.2,2.4,7.6,4.6,10.2,6.4c2.5,1.8,4.6,4.1,6.3,6.7s2.5,5.7,2.5,9.2
			c0,4-1.1,7.5-3.2,10.5c-2.1,3-5.3,5.4-9.4,7.1c-4.1,1.7-9.1,2.6-14.8,2.6c-3,0-6.8-0.7-11.3-2C546.9,444.7,543.4,443.2,541,441.7z
			"/>
	</g>
</g>
</svg>
