<!-- Generator: Adobe Illustrator 19.0.0, SVG Export Plug-In  -->
<svg version="1.1"
	 xmlns="http://www.w3.org/2000/svg" xmlns:xlink="http://www.w3.org/1999/xlink" xmlns:a="http://ns.adobe.com/AdobeSVGViewerExtensions/3.0/"
	 x="0px" y="0px" width="576.5px" height="148.5px" viewBox="0 0 576.5 148.5" style="enable-background:new 0 0 576.5 148.5;"
	 xml:space="preserve">
<style type="text/css">
	.st0{fill:#b1046e;}
</style>
<defs>
</defs>
<g id="XMLID_50_">
	<path id="XMLID_83_" class="st0" d="M64.4,74V42.9H35.4V74H21.5V0.5L35.4,0v31.6h28.9V0.5h13.9V74H64.4z"/>
	<path id="XMLID_80_" class="st0" d="M135.9,0.5l28.5,72.6l-14,1.9l-6.6-18.4h-27.9L109.4,74h-14L124,0.5H135.9z M129.6,19.8
		L120,45.4h19.4L129.6,19.8z"/>
	<path id="XMLID_78_" class="st0" d="M194.5,0.5v45.7c0,5.8,1.5,10.2,4.4,13.1s6.8,4.4,11.7,4.4c4.9,0,8.8-1.5,11.7-4.5
		c2.9-3,4.4-7.3,4.4-13V0.5h14.1v46.8c0,5.3-1.3,10.1-3.8,14.3c-2.5,4.2-6.1,7.5-10.7,9.9c-4.6,2.4-9.9,3.6-16,3.6
		c-6,0-11.2-1.2-15.8-3.6c-4.5-2.4-8-5.7-10.5-10c-2.4-4.2-3.7-9-3.7-14.3l-0.1-46.8H194.5z"/>
	<path id="XMLID_76_" class="st0" d="M264.9,74V0.5h13.9l34,49v-49h14V74h-14l-34-49.1V74H264.9z"/>
	<path id="XMLID_74_" class="st0" d="M405.6,11.6h-25.2V74h-14.1V11.6H344v-11h59.4L405.6,11.6z"/>
	<path id="XMLID_72_" class="st0" d="M422.7,74V0.5h43.8l2.2,11h-32.1v19.8h24l2.3,11.1h-26.2v20.6h35.2l2.3,10.9H422.7z"/>
	<path id="XMLID_69_" class="st0" d="M520.1,74h-27.9V0.5h27.9c7.4,0,13.7,1.5,18.7,4.6c5.1,3.1,8.9,7.3,11.3,12.7
		c2.5,5.4,3.7,11.8,3.7,19c0,11.6-2.9,20.6-8.8,27.2C539.3,70.5,530.9,73.8,520.1,74z M520.7,12.4h-14.5v49.8h13.7
		c6.2,0,11-2,14.4-6.1c3.4-4.1,5.1-10.5,5.1-19.3c0-7.8-1.5-13.9-4.6-18.1C531.7,14.5,527,12.4,520.7,12.4z"/>
	<path id="XMLID_67_" class="st0" d="M31.5,124.7l-17.6-22.6V147H0V73.5h8.9l24.8,33.9l22.6-33.9h8.5V147H50.7v-42.3L36.9,124
		L31.5,124.7z"/>
	<path id="XMLID_64_" class="st0" d="M122.4,73.5l28.5,72.6l-14,1.9l-6.6-18.4h-27.9L95.9,147h-14l28.6-73.4H122.4z M116.1,92.8
		l-9.6,25.6h19.4L116.1,92.8z"/>
	<path id="XMLID_62_" class="st0" d="M167.9,147V73.5h13.9l34,49v-49h14V147h-14l-34-49.1V147H167.9z"/>
	<path id="XMLID_60_" class="st0" d="M251,142.1l3.1-11.3c2.7,1.4,5.7,2.6,9.1,3.6c3.4,1,6.5,1.6,9.3,1.6c4.3,0,7.6-0.7,9.8-2.1
		c2.2-1.4,3.3-3.3,3.3-5.9c0-1.8-0.9-3.4-2.6-4.9c-1.8-1.5-4.5-3.2-8.2-5.2l-3.2-1.9c-4.8-2.9-8.7-5.4-11.5-7.5
		c-2.8-2.1-5.3-4.6-7.3-7.4c-2.1-2.8-3.1-6-3.1-9.6c0-3.7,1-7.1,3-10.1c2-3,4.9-5.3,8.7-7c3.8-1.7,8.3-2.5,13.6-2.5
		c6.2,0,13.1,1.8,20.7,5.5l-4.6,11.2c-3-1.4-5.6-2.6-8-3.3c-2.4-0.8-5-1.2-7.8-1.2c-3.2,0-5.9,0.6-7.9,1.9c-2.1,1.3-3.1,3.1-3.1,5.6
		c0,2.1,0.8,3.8,2.4,5.2c1.6,1.4,4.3,3.2,7.9,5.3l3.5,1.9l3.1,1.8c4.2,2.4,7.6,4.6,10.2,6.4c2.5,1.8,4.6,4.1,6.3,6.7
		c1.7,2.6,2.5,5.7,2.5,9.2c0,4-1.1,7.5-3.2,10.5c-2.1,3-5.3,5.4-9.4,7.1c-4.1,1.7-9.1,2.6-14.8,2.6c-3,0-6.8-0.7-11.3-2
		C256.9,145.1,253.4,143.6,251,142.1z"/>
	<path id="XMLID_58_" class="st0" d="M318.8,147V73.5h13.9V147H318.8z"/>
	<path id="XMLID_55_" class="st0" d="M388.5,71.8c7.4,0,13.9,1.7,19.3,5c5.5,3.3,9.6,7.9,12.5,13.7c2.8,5.8,4.3,12.2,4.3,19.3
		c0,7.5-1.5,14.1-4.5,19.9c-3,5.8-7.3,10.3-12.7,13.6c-5.4,3.3-11.7,5-18.8,5.1c-7.4,0-13.8-1.7-19.3-5c-5.4-3.3-9.6-7.9-12.4-13.6
		c-2.8-5.7-4.3-12.1-4.3-19.3c0-7.4,1.5-14,4.5-19.9c3-5.8,7.2-10.4,12.7-13.7C375.1,73.7,381.4,72,388.5,71.8z M367.1,110.5
		c0,5.1,0.9,9.7,2.6,13.7c1.7,4,4.2,7.1,7.4,9.3c3.2,2.2,7,3.3,11.3,3.3c4,0,7.7-1,11-3c3.3-2,5.9-5,7.8-9.1c1.9-4.1,2.9-9,2.9-14.9
		c0-5-0.9-9.5-2.6-13.5c-1.7-4-4.2-7.1-7.5-9.3c-3.2-2.2-7-3.3-11.2-3.3c-3.9,0-7.5,1.1-10.7,3.3c-3.3,2.2-5.9,5.3-7.9,9.4
		C368.1,100.5,367.1,105.1,367.1,110.5z"/>
	<path id="XMLID_53_" class="st0" d="M444.3,147V73.5h13.9l34,49v-49h14V147h-14l-34-49.1V147H444.3z"/>
	<path id="XMLID_51_" class="st0" d="M527.4,142.1l3.1-11.3c2.7,1.4,5.7,2.6,9.1,3.6c3.4,1,6.5,1.6,9.3,1.6c4.3,0,7.6-0.7,9.8-2.1
		c2.2-1.4,3.3-3.3,3.3-5.9c0-1.8-0.9-3.4-2.6-4.9c-1.8-1.5-4.5-3.2-8.2-5.2l-3.2-1.9c-4.8-2.9-8.7-5.4-11.5-7.5
		c-2.8-2.1-5.3-4.6-7.3-7.4c-2.1-2.8-3.1-6-3.1-9.6c0-3.7,1-7.1,3-10.1c2-3,4.9-5.3,8.7-7c3.8-1.7,8.3-2.5,13.6-2.5
		c6.2,0,13.1,1.8,20.7,5.5l-4.6,11.2c-3-1.4-5.6-2.6-8-3.3c-2.4-0.8-5-1.2-7.8-1.2c-3.2,0-5.9,0.6-7.9,1.9c-2.1,1.3-3.1,3.1-3.1,5.6
		c0,2.1,0.8,3.8,2.4,5.2c1.6,1.4,4.3,3.2,7.9,5.3l3.5,1.9l3.1,1.8c4.2,2.4,7.6,4.6,10.2,6.4c2.5,1.8,4.6,4.1,6.3,6.7
		c1.7,2.6,2.5,5.7,2.5,9.2c0,4-1.1,7.5-3.2,10.5c-2.1,3-5.3,5.4-9.4,7.1c-4.1,1.7-9.1,2.6-14.8,2.6c-3,0-6.8-0.7-11.3-2
		C533.3,145.1,529.8,143.6,527.4,142.1z"/>
</g>
</svg>
