<!-- Generator: Adobe Illustrator 22.1.0, SVG Export Plug-In  -->
<svg version="1.1"
	 xmlns="http://www.w3.org/2000/svg" xmlns:xlink="http://www.w3.org/1999/xlink" x="0px" y="0px" viewBox="0 0 2122.8 1166.5" xml:space="preserve">
<style type="text/css">
	.st0{fill:#FFFFFF;}
</style>
<defs>
</defs>
<g>
	<g>
		<rect x="877.8" y="1123.3" class="st0" width="373.1" height="11"/>
		<g>
			<path class="st0" d="M877.8,1135.8c12.4,0,24.8,0,37.2,0c29.6,0,59.2,0,88.9,0c36,0,72,0,108,0c31,0,62,0,93,0
				c10.3,0,20.6,0,30.9,0c4.6,0,9.9,0.7,14.5,0c0.2,0,0.4,0,0.6,0c0.8,0,1.5-0.7,1.5-1.5c0-3.7,0-7.3,0-11c0-0.8-0.7-1.5-1.5-1.5
				c-12.4,0-24.8,0-37.2,0c-29.6,0-59.2,0-88.9,0c-36,0-72,0-108,0c-31,0-62,0-93,0c-10.3,0-20.6,0-30.9,0c-4.6,0-9.9-0.7-14.5,0
				c-0.2,0-0.4,0-0.6,0c-0.8,0-1.5,0.7-1.5,1.5c0,3.7,0,7.3,0,11c0,1.9,3,1.9,3,0c0-3.7,0-7.3,0-11c-0.5,0.5-1,1-1.5,1.5
				c12.4,0,24.8,0,37.2,0c29.6,0,59.2,0,88.9,0c36,0,72,0,108,0c31,0,62,0,93,0c10.3,0,20.6,0,30.9,0c3.2,0,6.3,0,9.5,0
				c1.2,0,4,0.5,5.1,0c0.1-0.1,0.5,0,0.6,0c-0.5-0.5-1-1-1.5-1.5c0,3.7,0,7.3,0,11c0.5-0.5,1-1,1.5-1.5c-12.4,0-24.8,0-37.2,0
				c-29.6,0-59.2,0-88.9,0c-36,0-72,0-108,0c-31,0-62,0-93,0c-10.3,0-20.6,0-30.9,0c-4.6,0-10-0.8-14.5,0c-0.2,0-0.4,0-0.6,0
				C875.9,1132.8,875.9,1135.8,877.8,1135.8z"/>
		</g>
	</g>
	<g>
		<polygon class="st0" points="1040.2,1091.5 1030.9,1100.9 1095,1165 1104.4,1155.6 		"/>
		<g>
			<path class="st0" d="M1039.2,1090.4c-3.1,3.1-6.2,6.2-9.4,9.4c-0.6,0.6-0.6,1.5,0,2.1c18.7,18.7,37.3,37.3,56,56
				c2.7,2.7,5.4,5.4,8.1,8.1c0.6,0.6,1.5,0.6,2.1,0c3.1-3.1,6.2-6.2,9.4-9.4c0.6-0.6,0.6-1.5,0-2.1c-18.7-18.7-37.3-37.3-56-56
				c-2.7-2.7-5.4-5.4-8.1-8.1c-1.4-1.4-3.5,0.8-2.1,2.1c18.7,18.7,37.3,37.3,56,56c2.7,2.7,5.4,5.4,8.1,8.1c0-0.7,0-1.4,0-2.1
				c-3.1,3.1-6.2,6.2-9.4,9.4c0.7,0,1.4,0,2.1,0c-18.7-18.7-37.3-37.3-56-56c-2.7-2.7-5.4-5.4-8.1-8.1c0,0.7,0,1.4,0,2.1
				c3.1-3.1,6.2-6.2,9.4-9.4C1042.7,1091.2,1040.5,1089.1,1039.2,1090.4z"/>
		</g>
	</g>
</g>
<g>
	<path class="st0" d="M281,0c13.4,0,17.6,9.7,17.6,17v407.8h-43.7V239.7c-0.6-5.5-4.9-9.7-10.3-9.7h-47.3v194.8h-43.7V17
		c0-7.3,4.2-17,17.6-17h26.1v171.7c0,12.1,4.9,15.2,15.2,15.2h42.5V0H281z"/>
	<path class="st0" d="M592.9,424.8H545l-38.2-292.5l-38.2,292.5h-47.9L484.9,0h23.7c18.2,0,21.2,11.5,23.1,23.1L592.9,424.8z"/>
	<path class="st0" d="M853.8,375c0,29.1-23.7,51-52.2,51.6v0.6h-33.4c-29.7,0-54-22.5-54-52.2V12.1C714.9,5.5,720.3,0,727,0H758
		v367.1c0,12.7,9.7,23.1,22.5,23.1h6.7c12.7,0,23.1-10.3,23.1-23.1V0h43.7V375z"/>
	<path class="st0" d="M1145.1,424.8h-20c-23.7,0-27.3-18.8-29.1-27.3l-46.7-210v237.3h-43.7V0h20c24.3,0,28.5,11.5,30.9,23.7
		l44.9,220.9V0h43.7V424.8z"/>
	<path class="st0" d="M1437.6,31.6c-2.4,5.5-9.1,11.5-23.1,11.5h-34c-6.1,0-10.3,4.9-10.9,10.3v371.4h-30.9
		c-10.3,0-12.1-6.1-12.1-9.1V43.1h-61.3V13.4c0-7.3,6.1-13.4,13.4-13.4h173.6L1437.6,31.6z"/>
	<path class="st0" d="M1713.1,381.7c-4.9,10.9-12.1,27.9-14,31.6c-3,5.5-9.7,11.5-23.7,11.5h-97.1V12.1c0.6-6.7,6.1-12.1,13.3-12.1
		h113.5l-14.6,31.6c-2.4,5.5-9.1,12.1-23.1,12.1h-35.2c-6.1,0-10.3,4.2-10.3,10.3v126.2h65.5c-4.9,10.9-12.1,28.5-14,32.2
		c-3,5.5-9.1,11.5-23.1,11.5h-18.2c-5.5,0-10.3,4.9-10.3,10.3v147.5H1713.1z"/>
	<path class="st0" d="M1934,0c29.7,0,53.4,23.7,54,53.4v318c-0.6,29.7-24.3,53.4-54,53.4h-84.4V0H1934z M1945,65.5
		c0-15.8-10.9-21.8-23.1-21.8h-28.5v338h28.5c12.1,0,23.1-6.1,23.1-22.5V65.5z"/>
	<path class="st0" d="M190.6,943.1h-43.1V724l-32.8,145.6h-13.4c-25.5,0-30.3-25.5-32.8-34.6L43.1,724v219.1H0V518.3h26.7
		c17,0,19.4,15.8,19.4,15.8l50.4,244l47.9-244.6c0.6-1.8,3.6-15.2,19.4-15.2h26.7V943.1z"/>
	<path class="st0" d="M468.5,943.1h-47.9l-38.2-292.5l-38.2,292.5h-47.9l64.3-424.8h23.7c18.2,0,21.2,11.5,23.1,23.1L468.5,943.1z"
		/>
	<path class="st0" d="M729.4,943.1h-20c-23.7,0-27.3-18.8-29.1-27.3l-46.7-210v237.3h-43.7V518.3h20c24.3,0,28.5,11.5,30.9,23.7
		l44.9,220.9V518.3h43.7V943.1z"/>
	<path class="st0" d="M974,625.1v-49.2c0-13.4-10.3-23.7-23.1-23.7c-12.7,0-23.1,10.3-23.1,23.7v40.7c0,24.9,18.8,57,18.8,57
		l52.2,98.3c21.2,38.8,19.4,67.4,19.4,67.4v54c0,29.7-24.3,54-54.6,54h-27.3c-29.1-1.2-52.2-24.9-52.8-54v-43.7
		c0-14,6.7-20.6,12.1-23.7c3.6-1.2,21.2-9.1,32.2-14v74c0,12.7,10.3,23.1,23.1,23.1c12.7,0,23.1-10.3,23.1-23.7v-48.5
		c0-24.9-18.8-57.7-18.8-57.7L903,681.5c-21.2-38.8-19.4-67.4-19.4-67.4v-43.7c0-29.7,24.3-56.4,54.6-56.4h27.3
		c29.1,0.6,52.8,27.3,52.8,56.4v16.4c0,14-6.7,20.6-12.1,23.7C1002.5,612.4,985.5,620.2,974,625.1z"/>
	<path class="st0" d="M1216.1,518.3c12.7,0,17.6,9.7,17.6,17v407.8h-30.9c-10.3,0-12.1-6.1-12.7-9.1V518.3H1216.1z"/>
	<path class="st0" d="M1490.4,514c29.1,1.2,52.8,24.9,52.8,54v325.9c-0.6,29.1-23.7,52.2-52.8,53.4h-33.4c-29.7,0-54-24.3-54.6-53.4
		V568.1c0-29.7,24.3-54,54.6-54H1490.4z M1475.9,909.1c12.7,0,23.1-10.3,23.1-23.7V575.9c0-13.4-10.3-23.7-23.1-23.7h-6.7
		c-12.7,0.6-23.1,10.9-23.1,23.7v309.5c0,12.7,10.3,23.1,23.1,23.7H1475.9z"/>
	<path class="st0" d="M1833.9,943.1h-20c-23.7,0-27.3-18.8-29.1-27.3l-46.7-210v237.3h-43.7V518.3h20c24.3,0,28.5,11.5,31,23.7
		l44.9,220.9V518.3h43.7V943.1z"/>
	<path class="st0" d="M2078.5,625.1v-49.2c0-13.4-10.3-23.7-23.1-23.7c-12.7,0-23.1,10.3-23.1,23.7v40.7c0,24.9,18.8,57,18.8,57
		l52.2,98.3c21.2,38.8,19.4,67.4,19.4,67.4v54c0,29.7-24.3,54-54.6,54h-27.3c-29.1-1.2-52.2-24.9-52.8-54v-43.7
		c0-14,6.7-20.6,12.1-23.7c3.6-1.2,21.2-9.1,32.2-14v74c0,12.7,10.3,23.1,23.1,23.1c12.7,0,23.1-10.3,23.1-23.7v-48.5
		c0-24.9-18.8-57.7-18.8-57.7l-52.2-97.7c-21.2-38.8-19.4-67.4-19.4-67.4v-43.7c0-29.7,24.3-56.4,54.6-56.4h27.3
		c29.1,0.6,52.8,27.3,52.8,56.4v16.4c0,14-6.7,20.6-12.1,23.7C2107,612.4,2090,620.2,2078.5,625.1z"/>
</g>
</svg>
