<?xml version="1.0" encoding="utf-8"?>
<!-- Generator: Adobe Illustrator 19.0.0, SVG Export Plug-In . SVG Version: 6.00 Build 0)  -->
<svg version="1.1" id="Layer_1" xmlns="http://www.w3.org/2000/svg" xmlns:xlink="http://www.w3.org/1999/xlink" x="0px" y="0px"
	 viewBox="-162.7 360 245.3 71.3" style="enable-background:new -162.7 360 245.3 71.3;" xml:space="preserve">
<style type="text/css">
	.st0{fill:#FFFFFF;stroke:#000000;stroke-width:9.400000e-002;}
</style>
<path class="st0" d="M-46.3,362L-46.3,362c0.7,0.7,1.3,1.3,1.9,1.9l4.2,4.2v0.1c-2,2-4.1,4.1-6.1,6.1c-2-2-4.1-4.1-6.1-6.1
	c0.1-0.2,0.3-0.3,0.5-0.5C-50,365.8-48.1,363.9-46.3,362z M-34,362L-34,362c0.1,0.1,0.2,0.2,0.3,0.2c2,2,3.9,3.9,5.9,5.9
	c0,0.1-0.2,0.2-0.2,0.3c-2,2-3.9,3.9-5.9,5.9c-2.1-2-4.1-4.1-6.1-6.1C-38.1,366.1-36,364.1-34,362z M-21.7,362L-21.7,362
	c0.5,0.5,0.9,0.8,1.3,1.3c1.5,1.5,3.1,3.1,4.6,4.6c0.1,0.1,0.2,0.2,0.2,0.3c-2.1,2-4.1,4.1-6.1,6.1l-5.9-5.9
	c-0.1-0.1-0.2-0.2-0.3-0.3c1-1,2-2,3.1-3.1C-23.7,364-22.7,363-21.7,362z M-40,380.3c2-2,4-4,6-6l0.1,0c2,2,4,4.1,6.1,6.1
	c-0.1,0.2-0.2,0.2-0.3,0.4c-1.5,1.5-2.9,2.9-4.4,4.4c-0.5,0.5-0.9,1-1.4,1.4c-0.7-0.6-1.3-1.3-2-2c-1.4-1.4-2.7-2.7-4.1-4.1
	C-40,380.4-40,380.4-40,380.3L-40,380.3z M-103.1,406.8h18.3c0,1.5,0,2.9,0,4.4h-6.6v17.3c0,0.3,0,0.6,0,0.9h-5.1
	c0-6.1,0-12.1,0-18.2h-6.6V406.8z M-69.5,406.8c1.7,0,3.4,0,5.1,0c0,7.5,0,15.1,0,22.6h-5.1c0-2,0-4,0-6
	C-69.5,417.8-69.5,412.3-69.5,406.8z M21.2,406.8c1.7,0,3.4,0,5.1,0v18c3,0,6,0,9,0v4.5H21.2C21.2,421.8,21.2,414.3,21.2,406.8z
	 M-27.1,414.4c-0.5-1.8-1.5-3.4-2.9-4.6c-1.8-1.6-4.2-2.5-6.7-2.8c-1.4-0.2-2.7-0.1-4.1-0.2h-6.1c-0.1,0-0.2,0-0.4,0
	c0,7.5,0,14.9,0,22.4c0,0,0,0.1,0,0.2h8.8c0.8-0.1,1.6-0.1,2.4-0.3c2.7-0.5,5.2-1.8,7-3.9c1.3-1.5,2.1-3.4,2.3-5.4
	C-26.5,417.9-26.6,416.1-27.1,414.4L-27.1,414.4z M-32.9,421.9c-0.6,1-1.6,1.8-2.7,2.3c-1,0.5-2.1,0.7-3.2,0.7c-1.1,0-2.3,0-3.4,0
	c-0.1-1.3,0-2.5,0-3.8c0-3.3,0-6.6,0-9.9h3.5c1.8,0,3.6,0.6,4.9,1.9c1.2,1.1,1.8,2.7,1.9,4.3C-31.8,418.9-32.1,420.5-32.9,421.9z
	 M5.4,424.1c-2.2-5.2-4.3-10.5-6.5-15.7c-0.2-0.5-0.4-1.1-0.6-1.6c-1.8,0-3.5,0-5.3,0c-3,7.3-6.1,14.6-9.1,21.9
	c-0.1,0.2-0.2,0.5-0.3,0.7h5.5c0.5-1.5,1.1-3,1.7-4.5c3.1,0,6.2,0,9.3,0c0.2,0,0.2,0.1,0.2,0.2c0.5,1.4,1.1,2.8,1.6,4.3h5.7
	C6.9,427.6,6.1,425.8,5.4,424.1z M-7.8,420.9c0-0.2,0.1-0.4,0.2-0.6c1-2.7,2.1-5.4,3.1-8.1c0,0,0.1,0,0.1,0c1.1,2.9,2.2,5.7,3.3,8.6
	c0,0,0,0.1,0,0.2C-3.4,420.8-5.6,420.8-7.8,420.9z"/>
</svg>
