<?xml version="1.0" encoding="utf-8"?>
<!-- Generator: Adobe Illustrator 19.0.0, SVG Export Plug-In . SVG Version: 6.00 Build 0)  -->
<svg version="1.1" id="Layer_1" xmlns="http://www.w3.org/2000/svg" xmlns:xlink="http://www.w3.org/1999/xlink" x="0px" y="0px"
	 viewBox="-205 297 200 200" style="enable-background:new -205 297 200 200;" xml:space="preserve">
<style type="text/css">
	.st0{fill:#FFFFFF;}
</style>
<path class="st0" d="M-104,297c-55.2,0-100,44.8-100,100s44.8,100,100,100S-4,452.2-4,397l0,0C-4.1,341.8-48.8,297.1-104,297z
	 M-121.8,447.8H-151v-96.6h29.1V447.8z M-59.7,445.7c0,1.5-1.3,2.8-2.8,2.8c-0.7,0-1.4-0.3-1.9-0.8l-46-46c-1.1-1.1-1.1-2.8,0-3.9
	c0,0,0,0,0,0l46-46c1.1-1.1,2.9-1.1,3.9,0c0.5,0.5,0.8,1.2,0.8,1.9V445.7L-59.7,445.7z"/>
</svg>
