<?xml version="1.0" encoding="utf-8"?>
<!-- Generator: Adobe Illustrator 19.0.0, SVG Export Plug-In . SVG Version: 6.00 Build 0)  -->
<svg version="1.1" id="Layer_1" xmlns="http://www.w3.org/2000/svg" xmlns:xlink="http://www.w3.org/1999/xlink" x="0px" y="0px"
	 viewBox="-162.7 360 245.3 71.3" style="enable-background:new -162.7 360 245.3 71.3;" xml:space="preserve">
<style type="text/css">
	.st0{fill:#FFFFFF;}
</style>
<g>
	<path class="st0" d="M-117.9,395c-0.1-4.4,1.8-7.8,5.7-10.3c-2.2-3.2-5.4-5-9.7-5.4c-1.5-0.1-3.5,0.2-5.8,1.1
		c-2.5,0.9-4,1.4-4.3,1.4c-0.7,0-2-0.4-3.9-1.2c-1.9-0.8-3.5-1.2-4.9-1.2c-2.3,0-4.3,0.7-6.3,1.9c-1.9,1.2-3.5,2.9-4.6,5
		c-1.5,2.6-2.2,5.7-2.2,9.3c0,3.2,0.5,6.5,1.6,9.7c1,3.1,2.3,5.8,3.9,8.2c1.4,2.1,2.6,3.7,3.7,4.7c1.5,1.5,3.1,2.2,4.6,2.2
		c1,0,2.4-0.4,4-1.1c1.5-0.7,3.1-1,4.6-1c1.4,0,2.9,0.3,4.5,1c1.7,0.7,3.1,1.1,4.2,1.1c1.6-0.1,3.1-0.8,4.5-2.1c0.5-0.4,1-1,1.6-1.8
		c0.7-0.9,1.3-1.8,1.9-2.7c0.5-0.8,1-1.6,1.5-2.4c0.5-0.9,0.9-1.8,1.3-2.8c0.2-0.4,0.3-0.8,0.5-1.2c0.1-0.4,0.3-0.8,0.4-1.3
		c-1.3-0.6-2.5-1.4-3.5-2.4C-116.7,401.2-117.9,398.4-117.9,395L-117.9,395z M-79.6,404.7h-0.3l-10.7-24.5H-99v39.5h7.3v-25.6h0.3
		l9,20.3h5.1l8.9-20.3h0.3v25.6h7.4v-39.5h-8.4L-79.6,404.7z M-124.6,375c1.9-2.3,2.8-4.9,2.8-7.6v-0.5c0-0.2,0-0.4-0.1-0.5
		c-1.3,0.1-2.7,0.5-4.1,1.2c-1.5,0.8-2.7,1.7-3.6,2.9c-1.9,2.3-2.9,4.7-2.9,7.3v0.5c0,0.2,0,0.3,0.1,0.5
		C-129.5,379-126.9,377.8-124.6,375L-124.6,375z M25.3,380.1h8.3v39.5h-8.3V380.1z M58.4,386.4c4.9,0,7.5,3.8,7.5,7.8h7.9v-0.8
		c0-7.6-5.8-14-15.5-14c-10.3,0-16.4,6.8-16.4,18.3v4.5c0,11.6,6.1,18.3,16.4,18.3c9.9,0,15.5-6.5,15.5-13.6v-0.9h-7.9
		c0,4.1-2.5,7.5-7.4,7.5c-5,0-8.2-3.6-8.2-11.2v-4.5C50.3,390.2,53.5,386.4,58.4,386.4L58.4,386.4z M-29,405.1
		c0,5.3-3.1,8.2-7.7,8.2c-4.6,0-7.7-2.9-7.7-8.2v-25h-8.2v26.1c0,8.4,6,14.2,15.9,14.2c9.9,0,15.9-5.7,15.9-14.2v-26.1H-29V405.1
		L-29,405.1z M6.5,396.7l-5.9-1.3c-3.5-0.7-5.3-2.3-5.3-4.6c0-3,2.5-5,6.5-5c4.5,0,6.7,2.6,6.9,5.4h7.7c-0.1-7-5.9-11.9-14.6-11.9
		c-8.2,0-14.7,4.3-14.7,12.1c0,6.7,4.6,9.8,10,11l5.8,1.4c3.9,0.9,5.9,2.2,5.9,4.9c0,3.1-2.4,5.2-7,5.2c-4.9,0-7.5-2.6-7.7-5.5h-7.9
		c0.1,5.6,3.8,12.1,15.3,12.1c9.6,0,15.6-4.8,15.6-12.5C17,400.7,12.2,397.9,6.5,396.7L6.5,396.7z"/>
</g>
</svg>
