<svg fill="#b1046e" xmlns="http://www.w3.org/2000/svg" xmlns:xlink="http://www.w3.org/1999/xlink" version="1.1" x="0px" y="0px" viewBox="0 0 24 24" style="enable-background:new 0 0 24 24;" xml:space="preserve"><style type="text/css">
	.st0{display:none;}
	.st1{display:inline;}
	.st2{opacity:0.22;}
	.st3{opacity:0.33;fill:#b1046e;}
	.st4{opacity:0.1;fill:#b1046e;}
	.st5{fill:#b1046e;}
	.st6{display:inline;opacity:0.29;}
	.st7{display:inline;opacity:0.29;fill:#b1046e;}
	.st8{fill:none;}
</style><g class="st0"><g class="st1"><g><g><g><g class="st2"><rect x="0" class="st3" width="24" height="24"/></g></g><circle class="st4" cx="12" cy="12" r="10"/><path class="st4" d="M20,21H4c-0.5,0-1-0.5-1-1V4c0-0.5,0.5-1,1-1h16c0.5,0,1,0.5,1,1v16C21,20.5,20.5,21,20,21z"/><path class="st4" d="M18,22H6c-0.6,0-1-0.4-1-1V3c0-0.6,0.4-1,1-1h12c0.6,0,1,0.4,1,1v18C19,21.6,18.6,22,18,22z"/><path class="st4" d="M2,18L2,6c0-0.6,0.4-1,1-1l18,0c0.6,0,1,0.4,1,1l0,12c0,0.6-0.4,1-1,1L3,19C2.4,19,2,18.6,2,18z"/></g></g></g></g><g><path d="M7,15c0,0.5,0.4,1,1,1h3l3.4,2.8c0.2,0.1,0.4,0.2,0.6,0.2c0.6,0,1-0.4,1-1v-0.6l3.3,3.3c0.4,0.4,1,0.4,1.4,0h0   c0.4-0.4,0.4-1,0-1.4l-16-16c-0.4-0.4-1-0.4-1.4,0s-0.4,1,0,1.4l3.8,3.8C7.1,8.7,7,8.8,7,9V15z"/><path d="M16,6c0-0.6-0.4-1-1-1c-0.2,0-0.4,0.1-0.6,0.2l-2.7,2.2l4.3,4.3V6z"/></g></svg>
