<?xml version="1.0" encoding="utf-8"?>
<!-- Generator: Adobe Illustrator 19.0.0, SVG Export Plug-In . SVG Version: 6.00 Build 0)  -->
<svg version="1.1" id="Слой_1" xmlns="http://www.w3.org/2000/svg" xmlns:xlink="http://www.w3.org/1999/xlink" x="0px" y="0px"
	 viewBox="-95.5 124 183 137.5" style="enable-background:new -95.5 124 183 137.5;" xml:space="preserve">
<style type="text/css">
	.st0{fill:#FFFFFF;}
</style>
<g id="Icons">
	<g>
		<g>
			<path class="st0" d="M-7.7,233.6c0.2-1,0.4-1.1,1.3-1c0.1,0,0.3,0,0.4,0.1c0.9,0.3,1,0.4,1,1.3c0,2.3-0.1,4.6-0.1,6.8
				c0,0.7,0.2,1.4,0.3,2.1c0.1,0.4,0.3,0.7,0.8,0.8c0.5,0.1,0.8-0.1,1.1-0.5c0.4-0.6,0.7-1.3,0.6-2.1c-0.2-2-0.1-4,0.6-5.9
				c0.3-0.9,0.8-1.7,1.5-2.4c1.2-1.2,3.5-1.2,4.5,0.4c0,0.1,0.1,0.1,0.1,0.1c0.1-0.3,0.2-0.7,0.4-0.8c0.3-0.1,0.7-0.1,1.1-0.1
				c0.2,0,0.3,0.1,0.5,0.1c0.7,0.3,0.8,0.4,0.8,1.1c0,2.5-0.1,5.1-0.1,7.6c0,0.2,0,0.3,0,0.5c0.1-0.1,0.2-0.1,0.2-0.1
				c1.3-1.8,2.3-3.8,2.8-6c0.1-0.3,0-0.5-0.2-0.7c-0.6-0.5-0.7-1.5-0.3-2.3c0.3-0.7,1.1-1.1,1.9-1c0.7,0.1,1,0.4,1,1.1
				c0,0.3,0,0.6,0,0.9c0.3,0,0.6-0.1,1-0.1c0.6-0.1,1.2-0.2,1.7-0.3c1.3-0.2,2,0.5,1.7,1.8c-0.2,1-0.4,2.1-0.6,3.1
				c-0.2,1.3-0.3,2.5,0,3.8c0.1,0.4,0.2,0.8,0.4,1.1c0.4,0.7,1.2,0.8,1.8,0.1c0.5-0.6,0.7-1.2,0.6-2c-0.4-2.5-0.2-5,1.2-7.3
				c0.7-1.1,1.6-1.9,3.1-1.9c0.9,0,1.6,0.4,2.2,1c0.1,0.1,0.2,0.2,0.3,0.3c0.1-0.9,0.4-1.1,1.2-0.9c0.1,0,0.2,0,0.3,0.1
				c1.1,0.2,1.2,0.4,1.2,1.5c0,2.5,0,5,0,7.5c0,0.5,0.1,0.9,0.3,1.4c0.3,0.9,1.1,1,1.7,0.3c0.7-0.9,1.1-1.9,1.2-3.1
				c0.1-2.4,0.1-4.8,0.1-7.1c0-0.7,0.1-0.8,0.8-0.7c0.3,0.1,0.7,0.1,1,0.2c0.6,0.1,0.7,0.3,0.7,0.9c0,1.3,0,2.5,0,3.8
				c0,0.1,0,0.2,0.1,0.3c0.1-0.2,0.1-0.3,0.2-0.5c0.5-1.3,0.9-2.6,1.4-3.8c0.4-1,0.7-1.1,1.7-0.8c0.2,0.1,0.4,0.1,0.6,0.2
				c0.7,0.3,1,0.8,1,1.5c0.1,1.7,0.2,3.4,0.3,5.1c0,0.1,0,0.2,0.2,0.3c0.1-0.3,0.1-0.6,0.2-0.8c0.6-1.8,1.1-3.7,1.7-5.5
				c0.3-0.9,0.7-1,1.6-0.8c0.2,0,0.3,0.1,0.5,0.2c1.3,0.5,1.5,0.8,1.5,2.2c0,2-0.1,4.1,0,6.1c0,0.7,0.3,1.4,0.5,2
				c0.1,0.4,0.4,0.7,0.9,0.7c0.5,0,0.7-0.4,0.9-0.7c0.2-0.6,0.4-1.2,0.6-1.8c0-0.2,0.1-0.3,0.2-0.4c0.1-0.1,0.3-0.2,0.4-0.1
				c0.1,0,0.2,0.2,0.2,0.3c0.1,1.2-0.1,2.3-0.7,3.3c-0.7,1.2-2.4,1.5-3.6,0.7c-1.1-0.8-1.5-2.1-1.6-3.4c-0.1-1.9-0.1-3.8-0.2-5.7
				c0-0.1,0-0.2,0-0.5c-0.1,0.2-0.2,0.3-0.2,0.3c-1.1,2.5-1.8,5.1-1.9,7.9c0,0.5-0.2,0.6-0.6,0.7c-0.9,0.2-1.8-0.2-2.1-1.2
				c-0.2-0.9-0.4-1.9-0.5-2.8c-0.1-1.4-0.2-2.8-0.3-4.3c0-0.2,0-0.3-0.1-0.5c0,0-0.1,0-0.1,0c-0.1,0.2-0.3,0.3-0.4,0.5
				c-1,2-1.6,4-1.7,6.2c0,0.8-0.1,1.5-0.1,2.3c0,0.6-0.2,0.8-0.7,0.8c-0.6,0-1.2-0.1-1.7-0.2c-0.4-0.1-0.5-0.3-0.5-0.7
				c0-0.3,0-0.6-0.1-0.9c-0.6,1.2-1.4,2.1-2.9,1.9c-1.4-0.2-2.1-1.1-2.4-2.5c-0.8,1.3-1.8,2.3-3.3,2.5c-1.6,0.2-2.7-0.4-3.5-1.9
				c-0.2,0.3-0.3,0.5-0.4,0.6c-1,1.5-2.9,1.7-4.2,0.5c-0.8-0.7-1.2-1.7-1.4-2.7c-0.3-1.9,0-3.8,0.4-5.7c0.2-0.7,0.1-0.7-0.6-0.7
				c-1.1-0.1-1.6,0.3-2,1.3c-0.9,2.6-2.4,5-4.2,7.1c-0.2,0.2-0.3,0.5-0.3,0.7c0,1.5,0,3,0,4.5c-0.1,0.9-0.2,1.9-0.5,2.7
				c-0.5,1.8-2.2,3-3.9,3c-2.8,0-4.3-2.5-2.9-5c0.4-0.7,1-1.4,1.6-2c0.9-1,1.9-1.9,3-2.7c0.6-0.5,0.4-1,0.4-1.7
				c-2.1,2.7-5.1,2.6-6.5-0.1c-0.7,1.1-1.4,2.2-2.9,2c-1.4-0.2-2.2-1.1-2.5-2.6c-1,1.6-2.2,2.7-4.1,2.6c-2-0.1-2.7-1.7-3.3-3.4
				c-0.1,0.3-0.2,0.4-0.2,0.6c-0.4,0.9-0.9,1.7-1.7,2.3c-1,0.8-2.3,0.7-3.2-0.3c-0.9-1-1.1-2.2-1.3-3.4c0-0.1,0-0.2,0-0.3
				c0,0,0,0-0.1-0.1c-0.1,0.1-0.1,0.2-0.2,0.3c-0.6,1.3-1.4,2.5-2.6,3.4c-1.9,1.3-3.9,1.3-6,0.6c-0.4-0.1-0.9-0.4-0.9-0.9
				c0-0.7,0.4-1.2,0.9-1.5c0.2-0.1,0.5,0,0.8,0.1c0.3,0.1,0.6,0.4,0.9,0.6c1.1,0.7,2.1,0.2,2.3-1.1c0.1-0.7-0.1-1.4-0.5-1.9
				c-0.7-0.8-1.4-1.5-2.2-2.4c-0.2,0.3-0.3,0.4-0.4,0.6c-1,1.6-1.9,3.2-2.9,4.7c-0.5,0.7-1.1,1.3-1.8,1.8c-0.3,0.3-0.7,0.4-1.1,0.5
				c-0.7,0.2-1.4-0.2-1.7-0.9c-0.3-0.9-0.5-1.8-0.5-2.6c0-2.2,0.1-4.5,0.2-6.7c0-0.2-0.1-0.3-0.1-0.5c-0.2,0.1-0.3,0.2-0.5,0.3
				c-1.4,1.7-2.3,3.7-2.9,5.8c-0.4,1.4-0.6,2.7-0.9,4.1c0,0.2-0.2,0.5-0.4,0.5c-1.2,0.4-2.1-0.1-2.2-1.4c0-0.4-0.1-0.7-0.1-1.1
				c0-3.3,0-6.5,0.1-9.8c0-0.6,0.1-0.7,0.7-0.6c0.2,0,0.3,0,0.5,0.1c1.2,0.3,1.3,0.4,1.3,1.6c0,1.6-0.1,3.1-0.1,4.7
				c0,0.1,0,0.2,0.1,0.3c0.1-0.2,0.1-0.3,0.2-0.5c0.5-1.5,1-3.1,2-4.4c0.4-0.5,0.9-1,1.4-1.4c0.7-0.5,1.4-0.5,2.2-0.1
				c0.3,0.1,0.5,0.3,0.8,0.5c0.5,0.3,0.7,0.7,0.7,1.3c-0.1,1.6-0.2,3.3-0.2,4.9c0,0.9,0,1.8,0.1,2.7c0,0.1,0,0.3,0.1,0.4
				c0.2,0.5,0.4,0.6,0.8,0.2c0.4-0.3,0.7-0.7,1-1.2c0.9-1.4,1.7-2.9,2.5-4.3c0.1-0.1,0-0.4,0-0.5c-0.7-1-0.7-2.1,0-3.1
				c0.7-1,1.8-1.5,2.9-1.3c0.6,0.1,0.8,0.4,0.8,1c0,0.9-0.4,1.6-0.9,2.2c-0.2,0.2-0.3,0.4-0.5,0.7c0.6,0.5,1.3,0.9,1.9,1.4
				c0.5,0.4,1,0.8,1.4,1.2c0.8,0.8,1.2,1.8,1,3c0,0,0,0.1,0,0.1c0,0,0,0,0.1,0.1c0.2-0.2,0.4-0.5,0.6-0.7c1-1.2,1.6-2.6,1.5-4.2
				c-0.1-1.6,0-3.2,0-4.9c0-0.4-0.1-0.5-0.5-0.5c-0.7,0-1.4-0.1-2.2,0c-0.5,0-0.6-0.2-0.6-0.6c0-0.1,0-0.3,0-0.4
				c0.2-0.8,0.3-0.9,1.1-0.9c0.6,0,1.2,0,1.8,0c0.4,0,0.5-0.1,0.5-0.5c0-0.9,0-1.9,0.1-2.8c0-0.8,0.2-0.9,1-0.8
				c0.5,0.1,1.1,0.3,1.6,0.5c0.2,0.1,0.3,0.4,0.3,0.6c0,0.9,0,1.8-0.1,2.7c0,0.4,0.1,0.5,0.4,0.5c1,0,2,0.1,2.9,0.2
				c0.4,0,0.7,0.1,0.6,0.5c0,0.6-0.3,1.1-0.7,1.1c-1,0-1.9,0.1-2.9,0.1c-0.4,0-0.5,0.1-0.5,0.5c-0.1,2.4-0.2,4.9-0.2,7.3
				c0,0.9,0.2,1.8,0.3,2.6c0,0.3,0.2,0.5,0.3,0.8c0.3,0.5,0.7,0.6,1.1,0.2c0.3-0.2,0.5-0.5,0.7-0.7c0.8-1,1.2-2.2,1.2-3.5
				c0-1.7,0.3-3.4,1.2-4.9c0.9-1.6,2.5-2.3,4-1.9c0.5,0.2,1,0.6,1.4,0.9C-7.9,233.3-7.8,233.5-7.7,233.6z M26.2,238.3
				c0,0-0.1,0-0.1,0c0-0.5,0-0.9-0.1-1.4c-0.1-0.6-0.3-1.3-0.5-1.8c-0.6-1.1-1.8-1.2-2.5-0.2c-0.3,0.4-0.5,0.8-0.7,1.3
				c-0.5,1.5-0.6,3.1-0.4,4.7c0.1,0.8,0.3,1.6,0.7,2.3c0.4,0.8,1.3,0.9,1.9,0.3c0.5-0.5,0.9-1.2,1.1-1.8
				C25.9,240.5,26,239.4,26.2,238.3z M-7.7,238c0-0.2,0-0.7-0.1-1.1c-0.1-0.6-0.3-1.3-0.6-1.9c-0.5-1-1.7-1.1-2.5-0.2
				c-0.2,0.2-0.4,0.5-0.5,0.8c-0.7,1.6-0.8,3.4-0.6,5.1c0.1,0.8,0.3,1.6,0.7,2.3c0.4,0.9,1.3,1,2,0.2c0.4-0.4,0.7-0.9,0.9-1.4
				C-7.8,240.8-7.7,239.5-7.7,238z M0.3,239.9c0,0.2,0,0.6,0.1,1c0.1,0.9,0.3,1.7,0.8,2.4c0.5,0.7,1.3,0.8,1.9,0.2
				c0.4-0.4,0.8-1,1-1.5c0.6-1.7,0.7-3.4,0.5-5.2c-0.1-0.5-0.2-1.1-0.4-1.6c-0.5-1-1.6-1.2-2.4-0.4c-0.3,0.3-0.6,0.8-0.7,1.2
				C0.4,237.2,0.3,238.4,0.3,239.9z M4.9,246.7c-0.1,0.1-0.2,0.1-0.2,0.1c-0.9,1-1.8,2-2.6,3.1c-0.4,0.6-0.7,1.4-0.9,2.2
				c-0.2,0.7,0.2,1.3,0.8,1.6c0.6,0.3,1.3,0.1,1.7-0.4c0.3-0.3,0.5-0.7,0.6-1C5,250.4,4.9,248.6,4.9,246.7z"/>
			<path class="st0" d="M-46.6,235c0,2.6,0,5.2,0,7.8c0,1.6-0.5,3.2-1.7,4.3c-0.3,0.3-0.7,0.5-1.2,0.7c-0.5,0.2-0.7,0-0.5-0.5
				c0.2-0.8,0.4-1.6,0.6-2.4c0.1-0.4,0.1-0.7,0.1-1.1c0-5.2,0.1-10.4,0.1-15.6c0-0.1,0-0.1,0-0.2c0-0.2-0.1-0.3-0.2-0.5
				c-0.1,0.1-0.3,0.1-0.4,0.2c-0.9,0.8-1.4,1.8-1.8,2.9c-0.5,1.4-0.8,2.8-0.4,4.2c0.1,0.6,0.5,1.2,0.7,1.8c0.1,0.2,0.1,0.4,0.1,0.6
				c-0.2,0-0.4,0.1-0.6,0.1c-1.7-0.5-3-2.5-2.7-4.3c0.4-3.1,2.1-5.4,4.7-7c1-0.6,2.2-0.5,3,0.3c0.2,0.2,0.3,0.5,0.3,0.8
				C-46.5,229.8-46.5,232.4-46.6,235C-46.5,235-46.5,235-46.6,235z"/>
		</g>
		<g>
			<path class="st0" d="M12.8,136h-35.5c-11.4,0-20.8,9.3-20.8,20.8v35.5c0,11.4,9.3,20.8,20.8,20.8h35.5c11.4,0,20.8-9.3,20.8-20.8
				v-35.5C33.6,145.3,24.3,136,12.8,136z M-4.9,193.3c-10.4,0-18.8-8.4-18.8-18.8c0-10.4,8.4-18.8,18.8-18.8s18.8,8.4,18.8,18.8
				C13.9,184.9,5.5,193.3-4.9,193.3z M-37,183.4v-3.8c0-0.5,0.4-1,1-1c0.5,0,1,0.4,1,1v3.8c0,0.5-0.4,1-1,1
				C-36.6,184.4-37,184-37,183.4z M-35.1,161.9v12.6c0,0.5-0.4,1-1,1s-1-0.4-1-1v-12.6c0-0.5,0.4-1,1-1S-35.1,161.4-35.1,161.9z
				 M18.6,154.3c-1.4,0-2.6-1.1-2.6-2.6s1.1-2.6,2.6-2.6c1.4,0,2.6,1.1,2.6,2.6S20.1,154.3,18.6,154.3z"/>
		</g>
	</g>
</g>
</svg>
