<?xml version="1.0" encoding="utf-8"?>
<!-- Generator: Adobe Illustrator 19.0.0, SVG Export Plug-In . SVG Version: 6.00 Build 0)  -->
<svg version="1.1" id="Layer_1" xmlns="http://www.w3.org/2000/svg" xmlns:xlink="http://www.w3.org/1999/xlink" x="0px" y="0px"
	 viewBox="-174 385.6 245.3 71.3" style="enable-background:new -174 385.6 245.3 71.3;" xml:space="preserve">
<style type="text/css">
	.st0{clip-path:url(#SVGID_2_);fill:#FFFFFF;}
	.st1{fill:#FFFFFF;}
</style>
<g>
	<defs>
		<rect id="SVGID_1_" x="-165.7" y="389.1" width="50.4" height="50.4"/>
	</defs>
	<clipPath id="SVGID_2_">
		<use xlink:href="#SVGID_1_"  style="overflow:visible;"/>
	</clipPath>
	<path class="st0" d="M-121.2,410.3h-4.4c0.3,1.2,0.5,2.5,0.5,3.9c0,8.5-6.9,15.5-15.5,15.5c-8.5,0-15.5-6.9-15.5-15.5
		c0-1.3,0.2-2.6,0.5-3.9h-4.4v21.3c0,1.1,0.9,1.9,1.9,1.9h34.8c1.1,0,1.9-0.9,1.9-1.9l0,0V410.3z M-121.2,396.8
		c0-1.1-0.9-1.9-1.9-1.9c0,0,0,0,0,0h-5.8c-1.1,0-1.9,0.9-1.9,1.9v5.8c0,1.1,0.9,1.9,1.9,1.9c0,0,0,0,0,0h5.8c1.1,0,1.9-0.9,1.9-1.9
		c0,0,0,0,0,0V396.8z M-140.5,404.5c-5.3,0-9.7,4.3-9.7,9.7c0,5.3,4.3,9.7,9.7,9.7c5.3,0,9.7-4.3,9.7-9.7
		C-130.8,408.9-135.2,404.5-140.5,404.5 M-121.2,439.3h-38.7c-3.2,0-5.8-2.6-5.8-5.8v-38.7c0-3.2,2.6-5.8,5.8-5.8h38.7
		c3.2,0,5.8,2.6,5.8,5.8v38.7C-115.4,436.7-118,439.3-121.2,439.3"/>
</g>
<path class="st1" d="M-87.8,395.6c-1.1,0.4-3,2.8-4.2,5.1c-1.5,3.2-2.2,6.1-2.2,9.4c0,2.4,0.1,3.2,0.9,4.9c0.5,1.1,1.3,2.4,1.8,3
	c1.1,1.2,3.3,2.2,4.7,2.2c0.9,0,1.1,0.1,1.1,0.8c0,0.5-0.3,1.6-0.6,2.5c-1.5,3.9-4.5,6.1-8.4,6.1c-2.8,0-4.8-0.9-5.6-2.5
	c-0.9-1.9-0.7-3.1,0.8-5c1-1.2,1.5-2,1.6-3.1c0.1-1.4,0.1-1.6-0.6-1.8c-1.9-0.7-4.3,1.1-5.1,3.7c-0.2,0.8-0.3,2.3-0.2,3.4
	c0.5,5.5,4.7,8.4,11.6,7.9c3.8-0.3,5.7-1,7.8-3.1c2.2-2.1,3.1-4.5,3.5-8.9c0.4-3.7,0.4-17.9,0.1-21.8C-81,396-81,396-82,395.8
	C-84.4,395.5-87.2,395.4-87.8,395.6z M-85.7,400.4c0.2,0.3,0.3,3.6,0.2,8.3c-0.1,7.3-0.2,7.9-0.8,8c-1.1,0.4-2.5-0.6-3.3-2.4
	c-0.8-1.5-0.8-2.1-0.8-5.7c0-4.4,0.4-6,1.8-7.6C-87.9,400-86.3,399.7-85.7,400.4z M-44.9,396.6c-0.1,0.3-0.2,1.3-0.2,2.2
	c0,1-0.1,2.8-0.2,4l-0.2,2.3h-1.6c-1.5,0-4,0.5-4.3,0.8c-0.1,0.1,0,0.5,0.2,0.8c0.3,0.6,1,0.9,4.7,1.6l0.7,0.1l-0.1,8
	c-0.1,7,0,8.3,0.5,10.1c1.1,3.6,3.5,5.7,6,5.3c1.3-0.2,2.9-2,4-4.3c0.5-1.1,0.9-1.7,0.9-1.4c0,1.1,1.6,4.1,2.4,4.7
	c0.4,0.3,1.6,0.7,2.6,0.9c2.9,0.5,4.6-0.7,6.3-4.6l0.5-1.3l0.3,1c0.4,1.4,2.2,3.1,3.4,3.4c1.3,0.3,3.1-0.5,4-1.8l0.8-1l0.7,1.4
	c0.9,1.8,2,2.5,4.4,3c1.8,0.3,2.1,0.3,2.9-0.3c0.5-0.3,1.3-1.4,1.8-2.3l0.9-1.7v4l-2.5,2.5c-2.8,2.7-4.8,6.3-5.8,10.1
	c-1.7,6.5,0.4,9.4,6.9,9.4c2.8,0,2.8,0,3.8-1.1c1.6-1.9,1.8-3.3,2-11.9l0.2-7.9h1.1c0.6,0,1.3-0.2,1.5-0.4c0.4-0.4,0.3-0.6-0.4-1.1
	c-0.4-0.3-1.2-0.6-1.7-0.6H1.1l0.2-5.5c0.1-4.2,0.3-5.7,0.7-6.6l0.6-1.1l-1.1-0.4l-1.1-0.5v-3c0-2.9-0.1-3.1-0.9-4.1
	c-0.5-0.5-1.6-1.1-2.4-1.4c-0.8-0.2-2.1-0.7-3-1.1c-1.9-0.8-2.8-0.7-4.5,0.7c-2.3,2-3.4,6-3.9,13.3c-0.3,4.7-0.8,6.4-2.1,6.8
	c-0.9,0.3-1.6-0.3-2-1.8c-0.4-1.7-0.4-5.5,0.1-7.4c0.4-1.5,0.3-1.6-0.5-2.3c-0.8-0.6-0.9-1-1-3.5c-0.2-3.5-0.7-4.3-3.9-5.5
	c-6.3-2.6-9.4,0.3-10.6,9.7c-0.2,1.5-0.5,2.8-0.6,3c-0.2,0.2-0.6,1.4-0.8,2.7c-0.7,2.8-1.6,4.8-2.8,5.5c-0.8,0.5-0.9,0.5-1.5-0.1
	c-1-1-1.3-4.2-1.1-11.3c0.2-8.9,0.1-8.3,2.4-8.7c1-0.1,2.9-0.2,4.1-0.2c2.3,0,2.7-0.3,1.5-1.4c-0.5-0.5-1.5-0.7-4-0.8l-3.3-0.2
	l0.1-2.4c0-1.3,0.2-3.1,0.3-4c0.2-1.6,0.2-1.6-0.9-2.1C-43,396.1-44.7,395.9-44.9,396.6L-44.9,396.6z M-4.3,410.6
	c0.9,0.8,0.9,1,0.9,3.3c-0.1,4.6-0.9,9.7-2.1,11.9c-0.8,1.6-2.2,2.9-3,2.9c-0.4,0-1-0.4-1.4-0.9c-0.9-1.4-0.9-10.3,0-12.9
	c0.9-2.6,1.8-4.1,3-4.6C-5.4,409.7-5.4,409.7-4.3,410.6z M-23.8,411.4c0.9,1.2,1.3,3.6,0.6,4.6c-0.3,0.4-0.6,2.4-0.8,4.4
	c-0.5,4.5-1.2,6.9-2.4,8.1c-1.4,1.4-2.6,1.3-3.3-0.3c-1.3-3.1-0.8-12,0.9-15.3C-27.6,410.4-25.1,409.7-23.8,411.4L-23.8,411.4z
	 M-3.5,445.4c-0.6,3.9-2.1,5.9-3.9,5.5c-1.8-0.4-2.3-3.6-1.3-7.5c0.7-2.8,2.5-6.5,4.1-8.3l1.3-1.5l0.1,4.7
	C-3.2,441-3.3,444.2-3.5,445.4z"/>
<path class="st1" d="M22,407.6c-1.7,1.8-2.7,4.5-3.2,8.8c-0.5,4.1-1.8,9.4-2.8,11.1c-0.6,1-0.9,1.4-1.6,1.4c-1.4,0-1.8-1.9-1.6-6.9
	c0.1-3.1,0.4-4.9,0.9-6.7l0.8-2.5l-0.7-0.6c-0.5-0.4-1.6-0.7-3-0.8c-1.3-0.1-2.5-0.2-2.8-0.3c-0.3-0.1-0.5-0.5-0.5-1.4
	c0-1.9-0.4-2.3-1.8-2.1c-2.1,0.3-2.1,0.4-1.9,6.1c0.1,3.3,0,6-0.2,7.7c-0.6,3.6-0.6,3.9,0.1,4c0.9,0.2,1.8-2.2,2.5-7l0.6-4.2h2
	l-0.1,4.4c-0.2,8.6,1.6,13,5.3,13c1.6,0,2.9-1,3.9-3l0.8-1.7l0.5,1.5c0.3,0.8,1,1.8,1.5,2.3c1.1,1,4.3,1.8,5.5,1.3
	c1.1-0.4,2.6-2.2,3.5-4.2l0.7-1.7l0.6,1.4c1.6,3.6,5.3,3.9,7.5,0.6l0.9-1.4l0.2,1.8c0.3,2.2,0.7,2.7,2.5,3c2.9,0.4,2.9,0.4,3.6-4.7
	c0.6-4.6,1.5-8.4,2-8.4c0.1,0,0.3,2.3,0.4,5c0.1,4.4,0.2,5.1,0.7,5.7c1.3,1.5,4.6,1.2,4.6-0.3c0-1.2,1.4-6.1,2.5-8.9l1.1-2.7
	l0.2,4.7c0.1,4.2,0.3,4.9,1,6.4c0.5,0.9,1.3,2,1.8,2.4c1.3,0.9,3.6,0.9,4.9,0c2.6-1.9,5.3-10.3,3.3-10.3c-0.6,0-1,0.8-1.4,2.5
	c-0.8,4.3-3.4,6.8-4.6,4.3c-0.7-1.5-0.8-7.3-0.2-10c1-4.4,1-4.1-0.3-5.1c-0.8-0.6-1.8-1-2.9-1.1l-1.6-0.1l-0.9,2
	c-0.5,1.1-1.6,4.1-2.5,6.6l-1.6,4.6l-0.1-5.1l-0.1-5.2l-1-0.5c-2.7-1.4-4.1-0.1-5.7,5.1c-0.6,2-1.1,3.8-1.2,4
	c-0.1,0.2-0.1-2.6-0.1-6.2c0-4-0.2-6.6-0.4-6.7s-1.2-0.3-2.2-0.4l-1.8-0.2l-0.1,6.4c-0.1,5.4-0.3,6.7-0.9,8.6c-1.3,4-3,5.2-4,2.8
	c-0.6-1.4-0.6-6.5-0.1-8.4c0.3-1.2,0.3-1.4-0.5-2c-0.7-0.6-0.8-1.1-1-3.3c-0.3-3-0.8-4.3-2-4.8c-3.5-1.7-4.2-1.8-5.9-1.8
	C23.5,406.1,23.3,406.2,22,407.6L22,407.6z M28.6,410.9c1.1,0.6,1.9,4.4,1,5.3c-0.2,0.2-0.5,1.9-0.7,3.9c-0.5,4.6-1.2,7.2-2.4,8.5
	c-1.3,1.3-2.6,1.3-3.3-0.2c-1.1-2.4-1.1-9.3,0.1-13.5C24.4,411.4,26.5,409.7,28.6,410.9z M-76.6,408.8c-0.3,0.5-1,16.5-0.8,18.4
	c0.2,2.2,1,3,2.9,3c0.8,0,1.7-0.1,1.9-0.3c0.2-0.1,0.6-1.5,0.9-3.1c0.6-3.1,1.7-6.5,2.4-7.8c0.4-0.8,0.5-0.5,0.5,3.2
	c0,4.5,0.5,6,2,6.9c1.1,0.6,3.2,0.3,4.5-0.6c1-0.7,1-0.7,1.5-0.1c1.1,1.6,5.7,2.5,9,1.8c2.5-0.5,4-1.7,4-3.2c0-1.5-0.5-2.1-4-4.9
	c-3.5-2.8-4.1-3.6-4.1-5.2c0-2.4,3-3.9,4.8-2.3c0.8,0.7,1.5,0.6,2.5-0.6c0.7-0.8,0.8-1.4,0.8-2.5c-0.1-1.1-0.3-1.5-1.1-1.9
	c-1.9-0.9-8.1,0.7-10.3,2.8c-1.8,1.6-2.2,4.1-1,6.3c0.5,1,0.6,1.4,0.2,1.5c-0.2,0.1-0.5,0.8-0.7,1.6c-0.5,3.4-2.3,5.7-3.5,4.6
	c-0.4-0.5-0.5-1.5-0.6-6.1c0-4.2-0.2-5.8-0.6-6.6c-0.6-1.1-1.9-1.6-2.9-1.1c-0.8,0.4-2.2,2.8-3.4,5.8l-0.9,2.4l0-5.5
	c0-5.3,0-5.5-0.7-6C-74.6,408.7-76.4,408.4-76.6,408.8z M-54,424.8c0.8,0.7,1.5,1.6,1.6,1.9c0.5,1.9-2.3,2.4-4.4,0.8
	c-0.7-0.5-1.7-1.2-2.2-1.5c-0.6-0.3-0.8-0.7-0.7-1c0.1-0.3,0.4-1.4,0.6-2.4l0.4-1.9l1.7,1.4C-56.2,422.9-54.8,424.1-54,424.8z"/>
</svg>
