<!-- Generator: Adobe Illustrator 19.0.0, SVG Export Plug-In  -->
<svg version="1.1"
	 xmlns="http://www.w3.org/2000/svg" xmlns:xlink="http://www.w3.org/1999/xlink" xmlns:a="http://ns.adobe.com/AdobeSVGViewerExtensions/3.0/"
	 x="0px" y="0px" width="78.7px" height="94px" viewBox="0 0 78.7 94" style="enable-background:new 0 0 78.7 94;"
	 xml:space="preserve">
<style type="text/css">
	.st0{fill:#FFFFFF;}
</style>
<defs>
</defs>
<path id="XMLID_2_" class="st0" d="M65.9,18.5c0.8,4.5,1.5,9,2.3,13.5c0.1,0.7,0.4,1.3,0.3,2c-2,9.8-4.2,19.8-11.4,27.3
	c-6.9,7.1-16.4,7-25.3,6.9c-5.4-0.1-10.8-2.4-16.2-3.8c-0.9-0.2-1.9-0.9-2.3-1.7c-4-6.8-8.6-13.3-11.7-20.5
	c-2.9-6.6-0.9-13.6,1.9-20.1C8.2,10.9,15.8,2.3,28.4,0.6C40.3-0.9,52-0.2,61.1,9.7C61.1,9.7,64.9,14.8,65.9,18.5 M65.9,18.5
	 M34.7,54c7-0.2,10.2-4,11.6-9c1.7-6.5,7-12.4,2.4-20c-6-9.8-16.5-12.5-25.7-5.7c-1,0.7-1.8,2-2.1,3.2c-1.5,6.4-2.2,12.7-0.1,19.2
	C22,45.6,31.8,54,34.7,54z"/>
<path id="XMLID_1_" class="st0" d="M10.6,85.4c-0.2-4.3,0.9-6.7,6.1-7.5c16.5-2.7,32.9-6.3,49.4-9.2c2-0.3,4.5,1.2,6.5,2.4
	c1.3,0.8,2.2,2.5,3.2,3.7c4.6,5.2,3.6,7.2-2.5,10.7c-7,4.1-14.6,3.5-22,4.6c-10.6,1.5-21.3,1.9-31.9,3.5
	C12.5,94.8,10.9,93.2,10.6,85.4z"/>
</svg>
