<?xml version="1.0" encoding="utf-8"?>
<!-- Generator: Adobe Illustrator 19.0.0, SVG Export Plug-In . SVG Version: 6.00 Build 0)  -->
<svg version="1.1" id="Layer_1" xmlns="http://www.w3.org/2000/svg" xmlns:xlink="http://www.w3.org/1999/xlink" x="0px" y="0px"
	 viewBox="-162.7 360 245.3 71.3" style="enable-background:new -162.7 360 245.3 71.3;" xml:space="preserve">
<style type="text/css">
	.st0{fill:#FFFFFF;}
</style>
<g>
	<path class="st0" d="M-80.1,387.9c-5,0.5-8.4,3.5-9.4,8.4c-0.5,2.6-0.5,5.2,0.1,7.8c0.9,3.9,3.2,6.4,7,7.5c2.5,0.7,5,0.8,7.6,0.4
		c1.1-0.2,2.6-0.7,3.7-1.1l0.4-0.1l-0.2-0.7l0,0l0,0c-0.3-1.2-0.7-2.3-1-3.5l-0.3-1.2c0,0-8.7,4.2-10.1-3.8c-0.1-1.3-0.1-2.7,0.1-4
		c0.3-2.4,1.8-3.7,4.2-4c0.8-0.1,1.6,0,2.4,0.1c1.1,0.2,2.1,0.5,3.3,0.8c0.4-1.3,0.8-2.5,1.2-3.7c0.1-0.2,0.1-0.4,0.2-0.5l0.2-0.8
		c0-0.1-0.2-0.2-0.3-0.3c-0.2-0.2-0.5-0.3-1.1-0.5c-0.2-0.1-0.4-0.1-0.6-0.2c-0.2-0.1-0.3-0.1-0.3-0.1h0
		C-75.4,387.7-77.7,387.6-80.1,387.9z"/>
	<path class="st0" d="M-92.1,411.6v-23.5H-99v3h0c-0.1-0.1-0.2-0.2-0.2-0.3c0,0,0,0,0,0c-0.1-0.1-0.2-0.2-0.2-0.2
		c-1.7-1.7-2.3-2.1-3.6-2.5c-5-1.5-10,1.2-11.5,6.2c-1,3.1-1,6.3-0.4,9.5c1.2,6.8,6.3,9.1,11.7,8c1.7-0.3,2.9-1.4,4-2.8
		c0,0,0.1-0.1,0.2-0.4v3H-92.1z M-99.6,402.9c-0.2,2.2-2,3.5-4.1,3.4c-2.1-0.1-3.5-1.2-4-3.3c-0.6-2.9,0.1-6.4,0.1-6.6
		c0.6-2,2-2.9,4.1-2.9c2,0,3.6,1.3,3.9,3.4C-99.4,398.9-99.4,400.9-99.6,402.9z"/>
	<path class="st0" d="M-133.4,394.4h4.9v17.1h7.1v-17.1h5.4l0.6-6.3h-0.6v0h-5.3v-3.5c0.4-3.3,5.9-2.7,5.9-2.7l0-0.2l0,0v-5.5h0
		c-0.2,0-11-2.6-13.1,5.6c0,0,0,0,0,0l0,0.1c-0.3,1-0.3,5.7-0.3,6.3h-4.6V394.4z"/>
	<path class="st0" d="M-45.4,376.5v35.1h7.4v-2.1c1,0.7,2,1.6,3.1,2c4.3,1.6,10,0.3,12-5.5c1.3-3.7,1.2-7.5,0.3-11.3
		c-1.1-4.2-3.9-6.5-8.2-6.9l0,0c-2.8-0.3-5.2,0.6-7.3,3v-15.1L-45.4,376.5z M-37.3,395.5c0.7-1.2,1.9-1.9,3.4-2
		c2.2-0.1,3.9,1,4.3,3.3c0.3,2,0.3,4.1,0,6.1h0c-0.3,2.3-2.2,3.5-4.4,3.4c-0.5,0-1-0.2-1.5-0.3c-1.8-1-2.3-2.7-2.4-3.8c0,0,0,0,0,0
		C-38,400.6-38.1,397.1-37.3,395.5z"/>
	<path class="st0" d="M13.9,411.8c0.2,0,0.4,0.1,0.6,0.1c0.1,0,0.1,0,0.2,0c0,0,0,0,0,0c0.2,0,0.5,0.1,0.8,0.1
		c0.9,0.1,2.1,0.2,3.1,0.1l0,0c0.1,0,0.1,0,0.2,0c4.9-0.3,8.7-3.4,9.8-8.1c0.6-2.6,0.6-5.2,0-7.9c-0.9-4.1-3.4-6.7-7.5-7.8l0,0
		c-2.6-0.7-5.2-0.7-7.8,0c-3.9,1-6.4,3.5-7.3,7.4c-0.5,2.1-0.5,4.4-0.4,6.6c0.3,5,3.4,8.5,8.1,9.6C13.7,411.7,13.8,411.8,13.9,411.8
		L13.9,411.8L13.9,411.8z M13,402.6c-0.2-1.7-0.2-3.4,0-5c0.2-2.6,1.9-4.1,4.3-4c2,0,3.5,1.2,4,3.1c0.5,2,0.1,5.5,0.1,5.9l0,0
		c0,0.2-0.1,0.3-0.1,0.5c-0.5,2.2-2.1,3.4-4.2,3.3C14.7,406.2,13.2,404.9,13,402.6z"/>
	<polygon class="st0" points="45.5,388.4 38.7,399.1 38.7,375.7 31.2,376.6 31.2,411.6 38.7,411.6 38.7,400.9 45.5,411.6 
		53.4,411.6 46,400 53.4,388.4 	"/>
	<path class="st0" d="M-48.2,395.9c-0.6-4.4-3.3-7.2-7.6-7.9c-1.6-0.3-3.4-0.2-5.1-0.1c-4.6,0.4-8.1,3.3-8.8,7.6
		c-0.4,2.6-0.5,5.4-0.1,8c0.5,3.9,2.4,6.4,5.8,7.7h0c0,0,0,0,0,0v0c1.5,0.5,8.9,2.4,15.5-0.9l-0.3-1c0,0,0,0,0,0
		c-0.3-1.3-0.7-2.6-1-3.8l0-0.1c0,0-0.1,0-0.4,0.1c0,0,0,0,0,0c-0.3,0.1-0.6,0.2-0.8,0.3c-0.1,0-0.1,0-0.2,0c-1,0.3-2.4,0.6-3.9,0.8
		c-1.3,0.1-2.5,0.1-3.8,0c-2.1-0.3-3.7-1.5-3.6-4.1h13.4c0.1,0,0.2,0,0.3,0v0c0,0,0.9,0,0.9,0v-0.3l0-1.5l0,0
		C-48,399.1-48,397.5-48.2,395.9z M-54.7,397.5L-54.7,397.5l-8,0c0-1.6,0.2-3.1,1.7-4c1.5-1,3.2-1,4.7-0.1
		C-54.7,394.3-54.6,395.8-54.7,397.5z"/>
	<path class="st0" d="M-12.1,388.2c-3.9,1-6.4,3.5-7.3,7.4c-0.5,2.1-0.5,4.4-0.4,6.5c0.3,5,3.4,8.5,8.1,9.6c0.1,0,0.1,0,0.2,0h0l0,0
		c0.2,0,0.4,0.1,0.6,0.1l0.2,0h0c0.2,0,0.5,0.1,0.8,0.1c0.9,0.1,2.1,0.2,3.1,0.1c0,0,0,0,0,0c0.1,0,0.1,0,0.2,0
		c4.9-0.3,8.7-3.4,9.8-8.1c0.6-2.6,0.6-5.2,0-7.9c-0.9-4.1-3.4-6.7-7.5-7.8l0,0C-6.9,387.5-9.5,387.5-12.1,388.2z M-4.1,396.7
		c0.5,2,0.1,5.5,0.1,5.9l0,0c0,0.2-0.1,0.3-0.1,0.5c-0.5,2.2-2.1,3.4-4.2,3.3c-2.3-0.1-3.9-1.4-4.1-3.7c-0.2-1.7-0.2-3.4,0-5
		c0.2-2.6,1.9-4.1,4.3-4C-6.1,393.6-4.6,394.7-4.1,396.7z"/>
</g>
</svg>
