<?xml version="1.0" encoding="utf-8"?>
<!-- Generator: Adobe Illustrator 19.0.0, SVG Export Plug-In . SVG Version: 6.00 Build 0)  -->
<svg version="1.1" id="Layer_1" xmlns="http://www.w3.org/2000/svg" xmlns:xlink="http://www.w3.org/1999/xlink" x="0px" y="0px"
	 viewBox="-162.7 360 245.3 71.3" style="enable-background:new -162.7 360 245.3 71.3;" xml:space="preserve">
<style type="text/css">
	.st0{fill:#FFFFFF;}
</style>
<g>
	<path class="st0" d="M-108.3,379.8h4.5v10.8h0.1c1.2-2,3.8-3.3,6.1-3.3c6.4,0,9.6,5.1,9.6,11.3c0,5.7-2.8,11-8.8,11
		c-2.8,0-5.7-0.7-7.1-3.5h-0.1v2.9h-4.3L-108.3,379.8L-108.3,379.8z M-98.2,391c-3.8,0-5.7,3-5.7,7.5c0,4.3,2.1,7.4,5.7,7.4
		c4.1,0,5.7-3.8,5.7-7.4C-92.5,394.6-94.5,391-98.2,391"/>
	<path class="st0" d="M-53.1,387.3c-2.7,0-5,1.4-6.4,3.8l-0.1-0.1v-3.1h-4.3v18c-2.6,0-2.8,0-3,0c-0.8,0-1.1-0.5-1.1-1.6v-10.9
		c0-4.5-4.2-6.1-8.2-6.1c-4.5,0-9,1.6-9.3,7h4.5c0.2-2.3,2-3.4,4.5-3.4c1.8,0,4.2,0.5,4.2,2.9c0,2.7-2.9,2.4-6.1,3
		c-3.8,0.4-7.9,1.3-7.9,6.6c0,4.1,3.3,6.2,7,6.2c2.4,0,5.3-0.8,7.1-2.6c0.4,1.9,1.7,2.6,3.5,2.6c0.8,0,2.2-0.3,9.2-0.5v0h0v-12.5
		c0-3.1,1.9-5.6,4.9-5.6c2.6,0,3.9,1.4,4,4.7V409h4.5v-14.5C-45.9,389.8-48.7,387.3-53.1,387.3 M-72.4,401.9c0,2.9-3.1,4-5.1,4
		c-1.6,0-4.2-0.6-4.2-2.7c0-2.5,1.7-3.2,3.7-3.5c2-0.4,4.2-0.3,5.5-1.3V401.9z"/>
	<path class="st0" d="M-22.7,409h-4.3v-2.9H-27c-1.2,2.4-3.8,3.4-6.3,3.4c-6.4,0-9.6-4.9-9.6-11.3c0-7.6,4.4-11,8.9-11
		c2.6,0,5.4,1,6.8,3.3h0.1v-10.8h4.5L-22.7,409L-22.7,409z M-32.7,405.9c4,0,5.7-3.8,5.7-7.5c0-4.7-2.2-7.4-5.7-7.4
		c-4.2,0-5.7,3.9-5.7,7.7C-38.4,402.3-36.7,405.9-32.7,405.9"/>
	<path class="st0" d="M-4.7,395c-0.4-2.6-2.2-4-4.7-4c-2.3,0-5.6,1.3-5.6,7.7c0,3.5,1.5,7.2,5.4,7.2c2.6,0,4.4-1.8,4.9-4.8h4.5
		c-0.8,5.5-4.1,8.5-9.4,8.5c-6.4,0-9.9-4.7-9.9-10.9c0-6.4,3.4-11.4,10.1-11.4c4.7,0,8.8,2.5,9.2,7.6L-4.7,395L-4.7,395z"/>
	<path class="st0" d="M46.7,387.3c-3,0-4.9,1.4-6.4,3.5c-0.9-2.4-3.2-3.5-5.7-3.5c-3.2,0-4.9,1.4-6.3,3.5h-0.1v-2.9h-4.3v18
		c-2.6,0-2.8,0-3,0c-0.8,0-1.1-0.5-1.1-1.6v-10.9c0-4.5-4.2-6.1-8.2-6.1c-4.5,0-9,1.6-9.3,7h4.5c0.2-2.3,2-3.4,4.5-3.4
		c1.8,0,4.2,0.5,4.2,2.9c0,2.7-2.9,2.4-6.1,3c-3.8,0.4-7.9,1.3-7.9,6.6c0,4.1,3.3,6.2,7,6.2c2.4,0,5.3-0.8,7.1-2.6
		c0.4,1.9,1.7,2.6,3.5,2.6c0.8,0,2.2-0.3,9.2-0.5v0h0.1v-12.6c0-3.5,2.1-5.5,4.5-5.5c2.7,0,3.6,1.6,3.6,4.5V409h4.5v-12.4
		c0-3.6,1.3-5.6,4.3-5.6c3.5,0,3.7,2.3,3.7,5.7V409h4.5v-14.6C53.5,389.3,51,387.3,46.7,387.3 M15.3,401.9c0,2.9-3.1,4-5.1,4
		c-1.6,0-4.2-0.6-4.2-2.7c0-2.5,1.7-3.2,3.7-3.5c2-0.4,4.2-0.3,5.5-1.3L15.3,401.9L15.3,401.9z"/>
	<path class="st0" d="M57.6,387.9h4.3v2.9h0.1c1.3-2.4,3.7-3.4,6.3-3.4c6.4,0,9.6,5.1,9.6,11.3c0,5.7-2.8,11-8.8,11
		c-2.6,0-5.4-1-6.8-3.3h-0.1v10.6h-4.5L57.6,387.9L57.6,387.9z M67.7,391c-3.8,0-5.7,3-5.7,7.5c0,4.3,2.1,7.4,5.7,7.4
		c4.1,0,5.7-3.8,5.7-7.4C73.3,394.6,71.4,391,67.7,391"/>
	<polygon class="st0" points="-124,409 -157.8,409 -142,379.8 -108.2,379.8 	"/>
</g>
</svg>
